<svg width="32" height="32" viewBox="0 0 32 32" fill="none" xmlns="http://www.w3.org/2000/svg">
<g id="Content">
<rect x="0.1" y="0.1" width="31.8" height="31.8" rx="7.9" fill="url(#paint0_linear_81_3328)"/>
<circle id="Dot" cx="16" cy="16" r="12" fill="#FF9933"/>
<g id="Group 7">
<path id="Vector" d="M11.663 14.7595C12.5215 13.9026 12.5215 12.5132 11.663 11.6563C10.8046 10.7994 9.41279 10.7994 8.55435 11.6563C7.69591 12.5132 7.69591 13.9026 8.55435 14.7595C9.41279 15.6164 10.8046 15.6164 11.663 14.7595Z" fill="white"/>
<path id="Vector_2" d="M16.6633 15.3737C16.667 15.3737 16.6714 15.3725 16.6751 15.3719C16.677 15.3719 16.6782 15.3719 16.6801 15.3713C17.7274 15.2048 18.5281 14.3054 18.5281 13.2203C18.5281 12.017 17.5438 11.0414 16.3298 11.0414C15.235 11.0414 14.3276 11.8344 14.1596 12.873C14.1596 12.873 14.1596 12.8761 14.159 12.878C14.1583 12.8817 14.1577 12.886 14.1571 12.8897C13.733 15.4629 12.4072 16.7764 9.81109 17.1973C9.80734 17.1973 9.80297 17.1985 9.79922 17.1991C9.79735 17.1991 9.7961 17.1991 9.79423 17.1997C8.74692 17.3663 7.94629 18.2656 7.94629 19.3507C7.94629 20.554 8.93052 21.5296 10.1446 21.5296C11.2394 21.5296 12.1468 20.7366 12.3148 19.698C12.3148 19.698 12.3148 19.6949 12.3154 19.693C12.316 19.6893 12.3166 19.685 12.3173 19.6813C12.7413 17.1081 14.0672 15.7946 16.6633 15.3737Z" fill="white"/>
<path id="Vector_3" d="M22.7669 15.3741C22.7706 15.3741 22.7743 15.3728 22.7786 15.3722C22.7805 15.3722 22.7817 15.3722 22.7836 15.3716C23.8216 15.2051 24.6151 14.3056 24.6151 13.2205C24.6151 12.0171 23.6396 11.0415 22.4364 11.0415C21.3513 11.0415 20.452 11.8345 20.2855 12.8732C20.2855 12.8732 20.2849 12.8769 20.2843 12.8788C20.2843 12.8825 20.283 12.8856 20.2824 12.8893C19.8622 15.4626 18.5481 16.7761 15.9751 17.1971C15.9714 17.1971 15.9677 17.1983 15.9634 17.1989C15.9615 17.1989 15.9603 17.1989 15.9584 17.1996C14.9204 17.3661 14.127 18.2655 14.127 19.3507C14.127 20.554 15.1024 21.5296 16.3057 21.5296C17.3907 21.5296 18.29 20.7367 18.4565 19.6979C18.4565 19.6979 18.4571 19.6942 18.4577 19.6924C18.4577 19.6886 18.459 19.6856 18.4596 19.6818C18.8799 17.1086 20.1939 15.795 22.7669 15.3741Z" fill="white"/>
<path id="Vector_4" d="M22.8302 21.5451C24.0286 21.3509 24.8423 20.2238 24.6478 19.0276C24.4533 17.8314 23.3242 17.0191 22.1258 17.2132C20.9275 17.4074 20.1137 18.5345 20.3083 19.7307C20.5028 20.9269 21.6319 21.7392 22.8302 21.5451Z" fill="white"/>
</g>
<rect x="0.1" y="0.1" width="31.8" height="31.8" rx="7.9" stroke="white" stroke-width="0.2"/>
</g>
<defs>
<linearGradient id="paint0_linear_81_3328" x1="16" y1="0" x2="16" y2="32" gradientUnits="userSpaceOnUse">
<stop stop-color="white"/>
<stop offset="1" stop-color="#E6E6E6"/>
</linearGradient>
</defs>
</svg>
