<?xml version="1.0" encoding="UTF-8" standalone="no"?><!DOCTYPE svg PUBLIC "-//W3C//DTD SVG 1.1//EN" "http://www.w3.org/Graphics/SVG/1.1/DTD/svg11.dtd"><svg width="100%" height="100%" viewBox='0 0 24 24' version="1.1" xmlns="http://www.w3.org/2000/svg" xmlns:xlink="http://www.w3.org/1999/xlink" xml:space="preserve" xmlns:serif="http://www.serif.com/" style="fill-rule:evenodd;clip-rule:evenodd;stroke-linejoin:round;stroke-miterlimit:1.41421;"><rect id="icon-copy-invert" x="0" y="0" width="24" height="24" style="fill:none;"/><path d="M20,20.75l-16,0c-0.411,-0.018 -0.732,-0.336 -0.75,-0.75l0,-16c0.018,-0.411 0.336,-0.732 0.75,-0.75c1.052,0 2.105,-0.009 3.157,-0.021l1.843,-1.229l6,0l1.742,1.161c1.108,0.015 2.216,0.044 3.323,0.092c0.385,0.05 0.668,0.347 0.685,0.747l0,16c-0.018,0.411 -0.336,0.732 -0.75,0.75Zm-11.507,-16l-3.743,0l0,14.5l14.5,0l0,-14.5l-3.743,0l-1.507,2.292l-4,0l-1.507,-2.292Zm2.174,7.917l4,-4l1.333,1.333l-5.333,5.333l-2.667,-2.666l1.333,-1.334l1.334,1.334Zm1.333,-9.355c0.655,0.001 1.187,0.533 1.187,1.188c0,0.655 -0.532,1.188 -1.187,1.188c-0.655,0 -1.188,-0.533 -1.188,-1.188c0.001,-0.655 0.533,-1.187 1.188,-1.187Z" style="fill:#fff;"/></svg>