<?xml version="1.0" encoding="UTF-8" standalone="no"?><!DOCTYPE svg PUBLIC "-//W3C//DTD SVG 1.1//EN" "http://www.w3.org/Graphics/SVG/1.1/DTD/svg11.dtd"><svg width="100%" height="100%" viewBox='0 0 24 24' version="1.1" xmlns="http://www.w3.org/2000/svg" xmlns:xlink="http://www.w3.org/1999/xlink" xml:space="preserve" xmlns:serif="http://www.serif.com/" style="fill-rule:evenodd;clip-rule:evenodd;stroke-linejoin:round;stroke-miterlimit:1.41421;"><rect id="icon-copy-color" x="0" y="0" width="24" height="24" style="fill:none;"/><path d="M24,0l0,24l-24,0l0,-24l24,0Zm-4,20.75c0.414,-0.018 0.732,-0.339 0.75,-0.75l0,-16c-0.017,-0.4 -0.3,-0.697 -0.685,-0.747c-1.107,-0.048 -2.215,-0.077 -3.323,-0.092l-1.742,-1.161l-6,0l-1.843,1.229c-1.052,0.012 -2.105,0.021 -3.157,0.021c-0.414,0.018 -0.732,0.339 -0.75,0.75l0,16c0.018,0.414 0.339,0.732 0.75,0.75l16,0Zm-10,-13.708l4,0l1.507,-2.292l3.743,0l0,14.5l-14.5,0l0,-14.5l3.743,0l1.507,2.292Zm0.667,5.625l4,-4l1.333,1.333l-5.333,5.333l-2.667,-2.666l1.333,-1.334l1.334,1.334Zm1.333,-9.355c0.655,0.001 1.187,0.533 1.187,1.188c0,0.655 -0.532,1.188 -1.187,1.188c-0.655,0 -1.188,-0.533 -1.188,-1.188c0.001,-0.655 0.533,-1.187 1.188,-1.187Z" style="fill:#fff;"/></svg>