<?xml version="1.0" encoding="UTF-8" standalone="no"?>
<!DOCTYPE svg PUBLIC "-//W3C//DTD SVG 1.1//EN" "http://www.w3.org/Graphics/SVG/1.1/DTD/svg11.dtd">
<svg width="100%" height="100%" viewBox="0 0 28 16" version="1.1" xmlns="http://www.w3.org/2000/svg" xmlns:xlink="http://www.w3.org/1999/xlink" xml:space="preserve" xmlns:serif="http://www.serif.com/" style="fill-rule:evenodd;clip-rule:evenodd;stroke-linejoin:round;stroke-miterlimit:1.41421;">
    <g transform="matrix(1,0,0,1,-12264,-5177)">
        <g transform="matrix(1,0,0,1,8036,3518)">
            <g transform="matrix(1,0,0,1,24,-17)">
                <g transform="matrix(0.583333,0,0,0.666667,1763.33,561.333)">
                    <path d="M4232,1684C4232,1677.38 4225.86,1672 4218.29,1672L4197.71,1672C4190.15,1672 4184,1677.38 4184,1684C4184,1690.62 4190.15,1696 4197.71,1696L4218.29,1696C4225.86,1696 4232,1690.62 4232,1684Z" style="fill:rgb(189,188,186);"/>
                </g>
                <g transform="matrix(0.5,0,0,0.5,2108,842)">
                    <circle cx="4208" cy="1684" r="12" style="fill:white;"/>
                </g>
            </g>
        </g>
    </g>
</svg>
