<?xml version="1.0" encoding="UTF-8" standalone="no"?>
<!DOCTYPE svg PUBLIC "-//W3C//DTD SVG 1.1//EN" "http://www.w3.org/Graphics/SVG/1.1/DTD/svg11.dtd">
<svg width="100%" height="100%" viewBox="0 0 14 16" version="1.1" xmlns="http://www.w3.org/2000/svg" xmlns:xlink="http://www.w3.org/1999/xlink" xml:space="preserve" xmlns:serif="http://www.serif.com/" style="fill-rule:evenodd;clip-rule:evenodd;stroke-linejoin:round;stroke-miterlimit:1.41421;">
    <g transform="matrix(1,0,0,1,-21290.7,-2284)">
        <g transform="matrix(1,0,0,1.1643,17516.9,460.176)">
            <g transform="matrix(0.666667,0,0,0.572588,3772.48,1566.45)">
                <path d="M19,24L5,24C3.896,24 3,23.104 3,22L3,5L2,5L2,3L8,3L8,1.5C8,0.673 8.673,0 9.5,0L14.5,0C15.325,0 16,0.671 16,1.5L16,3L22,3L22,5L21,5L21,22C21,23.104 20.104,24 19,24ZM19,5L5,5L5,21.5C5,21.776 5.224,22 5.5,22L18.5,22C18.776,22 19,21.776 19,21.5L19,5ZM10,9C10,8.448 9.552,8 9,8C8.448,8 8,8.448 8,9L8,18C8,18.552 8.448,19 9,19C9.552,19 10,18.552 10,18L10,9ZM16,9C16,8.448 15.552,8 15,8C14.448,8 14,8.448 14,9L14,18C14,18.552 14.448,19 15,19C15.552,19 16,18.552 16,18L16,9ZM14,2L10,2L10,3L14,3L14,2Z"/>
            </g>
        </g>
    </g>
</svg>
