<?xml version="1.0" encoding="UTF-8" standalone="no"?>
<!DOCTYPE svg PUBLIC "-//W3C//DTD SVG 1.1//EN" "http://www.w3.org/Graphics/SVG/1.1/DTD/svg11.dtd">
<svg width="100%" height="100%" viewBox="0 0 24 29" version="1.1" xmlns="http://www.w3.org/2000/svg" xmlns:xlink="http://www.w3.org/1999/xlink" xml:space="preserve" xmlns:serif="http://www.serif.com/" style="fill-rule:evenodd;clip-rule:evenodd;stroke-linejoin:round;stroke-miterlimit:1.41421;">
    <g transform="matrix(1,0,0,1,-12433,-1819.75)">
        <g transform="matrix(0.871921,0,0,1.6,11933.7,1690)">
            <g transform="matrix(1.72034,0,0,0.9375,566.955,78.2813)">
                <path d="M10.307,22L3.307,22L3.307,21L10.307,21L10.307,22ZM19.307,22L12.307,22L12.307,21L19.307,21L19.307,22ZM10.307,19L3.307,19L3.307,18L10.307,18L10.307,19ZM19.307,19L12.307,19L12.307,18L19.307,18L19.307,19ZM10.307,16L3.307,16L3.307,15L10.307,15L10.307,16ZM19.307,16L12.307,16L12.307,15L19.307,15L19.307,16ZM10.307,13L3.307,13L3.307,12L10.307,12L10.307,13ZM19.307,13L12.307,13L12.307,12L19.307,12L19.307,13ZM10.307,10L3.307,10L3.307,9L10.307,9L10.307,10ZM19.307,10L12.307,10L12.307,9L19.307,9L19.307,10ZM19.307,7L12.307,7L12.307,6L19.307,6L19.307,7ZM19.307,4L12.307,4L12.307,3L19.307,3L19.307,4Z" style="fill:white;fill-rule:nonzero;"/>
            </g>
        </g>
    </g>
</svg>
