<?xml version="1.0" encoding="UTF-8" standalone="no"?>
<!DOCTYPE svg PUBLIC "-//W3C//DTD SVG 1.1//EN" "http://www.w3.org/Graphics/SVG/1.1/DTD/svg11.dtd">
<svg width="100%" height="100%" viewBox="0 0 14 16" version="1.1" xmlns="http://www.w3.org/2000/svg" xmlns:xlink="http://www.w3.org/1999/xlink" xml:space="preserve" xmlns:serif="http://www.serif.com/" style="fill-rule:evenodd;clip-rule:evenodd;stroke-linejoin:round;stroke-miterlimit:1.41421;">
    <g transform="matrix(1,0,0,1,-6149.33,-304)">
        <g transform="matrix(1,0,0,1,4800,-0.168408)">
            <g transform="matrix(0.666667,0,0,0.666667,1348,304.168)">
                <path d="M9,19C9,19.552 8.552,20 8,20C7.448,20 7,19.552 7,19L7,9C7,8.448 7.448,8 8,8C8.552,8 9,8.448 9,9L9,19ZM13,19C13,19.552 12.552,20 12,20C11.448,20 11,19.552 11,19L11,9C11,8.448 11.448,8 12,8C12.552,8 13,8.448 13,9L13,19ZM17,19C17,19.552 16.552,20 16,20C15.448,20 15,19.552 15,19L15,9C15,8.448 15.448,8 16,8C16.552,8 17,8.448 17,9L17,19ZM22,2L22,4L2,4L2,2L7.711,2C8.611,2 9.342,0.901 9.342,0L14.657,0C14.657,0.901 15.387,2 16.288,2L22,2ZM19,6L19,22L5,22L5,6L3,6L3,24L21,24L21,6L19,6Z" style="fill-rule:nonzero;"/>
            </g>
        </g>
    </g>
</svg>
