<?xml version="1.0" encoding="UTF-8" standalone="no"?><!DOCTYPE svg PUBLIC "-//W3C//DTD SVG 1.1//EN" "http://www.w3.org/Graphics/SVG/1.1/DTD/svg11.dtd"><svg width="100%" height="100%" viewBox='0 0 24 24' version="1.1" xmlns="http://www.w3.org/2000/svg" xmlns:xlink="http://www.w3.org/1999/xlink" xml:space="preserve" xmlns:serif="http://www.serif.com/" style="fill-rule:evenodd;clip-rule:evenodd;stroke-linejoin:round;stroke-miterlimit:1.41421;"><rect id="icon-warning-color" x="0" y="0" width="24" height="24" style="fill:none;"/><path d="M24,0l0,24l-24,0l0,-24l24,0Zm-12,3.75c4.553,0 8.25,3.697 8.25,8.25c0,4.553 -3.697,8.25 -8.25,8.25c-4.553,0 -8.25,-3.697 -8.25,-8.25c0,-4.553 3.697,-8.25 8.25,-8.25Zm0,1.5c3.725,0 6.75,3.025 6.75,6.75c0,3.725 -3.025,6.75 -6.75,6.75c-3.725,0 -6.75,-3.025 -6.75,-6.75c0,-3.725 3.025,-6.75 6.75,-6.75Zm-0.081,8.625c-0.752,0 -1.278,0.526 -1.278,1.278c0,0.764 0.526,1.29 1.278,1.29c0.764,0 1.29,-0.526 1.29,-1.29c0,-0.752 -0.526,-1.278 -1.29,-1.278Zm0.902,-0.766l0.501,-3.246l0,-2.306l-2.681,0l0,2.306l0.501,3.246l1.679,0Z" style="fill:#fff;"/></svg>