<?xml version="1.0" encoding="UTF-8" standalone="no"?><!DOCTYPE svg PUBLIC "-//W3C//DTD SVG 1.1//EN" "http://www.w3.org/Graphics/SVG/1.1/DTD/svg11.dtd"><svg width="100%" height="100%" viewBox="0 0 18 17" version="1.1" xmlns="http://www.w3.org/2000/svg" xmlns:xlink="http://www.w3.org/1999/xlink" xml:space="preserve" xmlns:serif="http://www.serif.com/" style="fill-rule:evenodd;clip-rule:evenodd;stroke-linejoin:round;stroke-miterlimit:2;"><path id="icon-adreq-2" d="M8.916,7.057c0,-1.248 -0.133,-2.519 0.292,-3.636c0.647,-1.702 2.388,-2.906 4.256,-2.895c2.341,0.045 4.416,2.127 4.432,4.489l0,2.042l-0.816,0c0,-1.185 0.15,-2.398 -0.271,-3.429c-0.891,-2.18 -4.145,-2.98 -5.937,-1.271c-0.717,0.683 -1.134,1.663 -1.139,2.66l0,2.04l0.871,0l0,9l-10.5,0l0,-9l8.812,0Zm0.788,0.9l-8.7,0l0,7.2l8.7,0l0,-7.2Z" style="fill:#fff;"/></svg>