<?xml version="1.0" encoding="UTF-8" standalone="no"?><!DOCTYPE svg PUBLIC "-//W3C//DTD SVG 1.1//EN" "http://www.w3.org/Graphics/SVG/1.1/DTD/svg11.dtd"><svg width="100%" height="100%" viewBox='0 0 24 24' version="1.1" xmlns="http://www.w3.org/2000/svg" xmlns:xlink="http://www.w3.org/1999/xlink" xml:space="preserve" xmlns:serif="http://www.serif.com/" style="fill-rule:evenodd;clip-rule:evenodd;stroke-linejoin:round;stroke-miterlimit:1.41421;"><rect id="icon-synchronize-invert" x="0" y="0" width="24" height="24" style="fill:none;"/><path d="M17.78,17.887c-1.535,1.507 -3.608,2.363 -5.78,2.363c-4.556,0 -8.25,-3.694 -8.25,-8.25l1.5,0c0,3.725 3.025,6.75 6.75,6.75c1.814,0 3.461,-0.717 4.674,-1.882l-1.091,-1.005l4.704,-1.785l-1.394,4.834l-1.113,-1.025Zm-11.56,-11.774c1.535,-1.507 3.608,-2.363 5.78,-2.363c4.556,0 8.25,3.694 8.25,8.25l-1.5,0c0,-3.725 -3.025,-6.75 -6.75,-6.75c-1.814,0 -3.461,0.717 -4.674,1.882l1.091,1.005l-4.704,1.785l1.394,-4.834l1.113,1.025Z" style="fill:#fff;"/></svg>