<?xml version="1.0" encoding="UTF-8" standalone="no"?>
<!DOCTYPE svg PUBLIC "-//W3C//DTD SVG 1.1//EN" "http://www.w3.org/Graphics/SVG/1.1/DTD/svg11.dtd">
<svg width="100%" height="100%" viewBox="0 0 16 11" version="1.1" xmlns="http://www.w3.org/2000/svg" xmlns:xlink="http://www.w3.org/1999/xlink" xml:space="preserve" xmlns:serif="http://www.serif.com/" style="fill-rule:evenodd;clip-rule:evenodd;stroke-linejoin:round;stroke-miterlimit:1.41421;">
    <g transform="matrix(1,0,0,1,-18952,-258.667)">
        <g transform="matrix(1,0,0,1.2,17624,0)">
            <g transform="matrix(0.666667,0,0,0.555556,1328,213.333)">
                <path d="M24,10.935L24,13.066L16,17.013L16,14.783L21.64,12L16,9.21L16,6.987L24,10.935ZM8,14.783L2.36,12L8,9.21L8,6.987L0,10.935L0,13.066L8,17.013L8,14.783ZM15.047,4L12.969,4L8.958,20L11.031,20L15.047,4Z" style="fill-rule:nonzero;"/>
            </g>
        </g>
    </g>
</svg>
