<?xml version="1.0" encoding="UTF-8" standalone="no"?><!DOCTYPE svg PUBLIC "-//W3C//DTD SVG 1.1//EN" "http://www.w3.org/Graphics/SVG/1.1/DTD/svg11.dtd"><svg width="100%" height="100%" viewBox='0 0 24 24' version="1.1" xmlns="http://www.w3.org/2000/svg" xmlns:xlink="http://www.w3.org/1999/xlink" xml:space="preserve" xmlns:serif="http://www.serif.com/" style="fill-rule:evenodd;clip-rule:evenodd;stroke-linejoin:round;stroke-miterlimit:1.41421;"><rect id="icon-delete" x="0" y="0" width="24" height="24" style="fill:none;"/><path d="M16.5,20l-9,0c-0.828,0 -1.5,-0.672 -1.5,-1.5l0,-10.5l12,0l0,10.5c0,0.828 -0.672,1.5 -1.5,1.5Zm-3.75,-9.25c0,-0.414 -0.336,-0.75 -0.75,-0.75c-0.414,0 -0.75,0.336 -0.75,0.75l0,6.5c0,0.414 0.336,0.75 0.75,0.75c0.414,0 0.75,-0.336 0.75,-0.75l0,-6.5Zm3,0c0,-0.414 -0.336,-0.75 -0.75,-0.75c-0.414,0 -0.75,0.336 -0.75,0.75l0,6.5c0,0.414 0.336,0.75 0.75,0.75c0.414,0 0.75,-0.336 0.75,-0.75l0,-6.5Zm-6,0c0,-0.414 -0.336,-0.75 -0.75,-0.75c-0.414,0 -0.75,0.336 -0.75,0.75l0,6.5c0,0.414 0.336,0.75 0.75,0.75c0.414,0 0.75,-0.336 0.75,-0.75l0,-6.5Zm-1,-6.75l0,-0.631c0,-0.829 0.672,-1.5 1.5,-1.5c1.051,0 2.449,0 3.5,0c0.828,0 1.5,0.671 1.5,1.5l0,0.631l1.75,0c1.104,0 2,0.896 2,2l0,1l-14,0l0,-1c0,-1.104 0.896,-2 2,-2l1.75,0Zm6,0l0,-0.665c0,-0.552 -0.448,-1 -1,-1c-0.993,0 -2.507,0 -3.5,0c-0.552,0 -1,0.448 -1,1l0,0.665l5.5,0Z"/></svg>