<?xml version="1.0" encoding="UTF-8" standalone="no"?>
<!DOCTYPE svg PUBLIC "-//W3C//DTD SVG 1.1//EN" "http://www.w3.org/Graphics/SVG/1.1/DTD/svg11.dtd">
<svg width="100%" height="100%" viewBox="0 0 16 14" version="1.1" xmlns="http://www.w3.org/2000/svg" xmlns:xlink="http://www.w3.org/1999/xlink" xml:space="preserve" xmlns:serif="http://www.serif.com/" style="fill-rule:evenodd;clip-rule:evenodd;stroke-linejoin:round;stroke-miterlimit:1.41421;">
    <g transform="matrix(1,0,0,1,-11624,-2097.34)">
        <g transform="matrix(0.75,0,0,1.74,11324,1780)">
            <g transform="matrix(0.888556,0,0,0.382998,399.97,181.611)">
                <path d="M8.137,15.147C7.427,14.29 6.991,13.2 6.991,12C6.991,9.24 9.232,7 11.991,7C13.192,7 14.282,7.435 15.139,8.145L17.036,6.248C15.595,5.51 13.914,5 12.001,5C5.886,5 1.976,10.355 1.159,11.584C1.688,12.418 3.538,15.111 6.272,17.012L8.137,15.147ZM14.431,8.853C13.758,8.323 12.916,8 11.991,8C9.784,8 7.991,9.792 7.991,12C7.991,12.923 8.315,13.765 8.845,14.439L14.431,8.853ZM21.991,2.707L2.699,22L1.991,21.293L5.539,17.745C3.241,16.133 1.305,13.86 -0.009,11.576C2.409,7.473 6.934,4 12.001,4C14.066,4 16.022,4.566 17.783,5.501L21.284,2L21.991,2.707ZM19.526,6.586L18.792,7.32C21.028,8.939 22.42,10.924 22.853,11.594C22.114,12.897 18.307,19 12.001,19C10.576,19 9.252,18.632 8.05,18.062L7.302,18.81C8.777,19.552 10.359,20 12.001,20C17.275,20 21.759,15.994 24,11.564C22.913,9.673 21.37,7.927 19.526,6.586ZM15.991,12C15.991,11.446 15.878,10.918 15.674,10.438L16.408,9.704C16.769,10.394 16.991,11.168 16.991,12C16.991,14.759 14.751,17 11.991,17C11.159,17 10.387,16.777 9.696,16.417L10.43,15.682C10.91,15.886 11.437,16 11.991,16C14.199,16 15.991,14.208 15.991,12Z" style="fill:rgb(189,188,186);"/>
            </g>
        </g>
    </g>
</svg>
