<?xml version="1.0" encoding="UTF-8" standalone="no"?><!DOCTYPE svg PUBLIC "-//W3C//DTD SVG 1.1//EN" "http://www.w3.org/Graphics/SVG/1.1/DTD/svg11.dtd"><svg width="100%" height="100%" viewBox='0 0 24 24' version="1.1" xmlns="http://www.w3.org/2000/svg" xmlns:xlink="http://www.w3.org/1999/xlink" xml:space="preserve" xmlns:serif="http://www.serif.com/" style="fill-rule:evenodd;clip-rule:evenodd;stroke-linejoin:round;stroke-miterlimit:1.41421;"><rect id="icon-filter-invert" x="0" y="0" width="24" height="24" style="fill:none;"/><path d="M19.065,3.831c0.573,0.075 0.869,0.764 0.508,1.231l-5.323,6.29l-0.003,5.136c-0.036,0.271 -0.102,0.34 -0.217,0.465l-3,3c-0.457,0.419 -1.252,0.104 -1.28,-0.531l0,-8.07l-5.363,-6.342c-0.312,-0.486 0.022,-1.156 0.613,-1.182c4.688,0 9.381,-0.202 14.065,0.003Zm-12.448,1.497l4.496,5.317c0.079,0.123 0.126,0.185 0.137,0.433l0,6.534l1.5,-1.5l0,-5.034c0.007,-0.17 0.009,-0.267 0.177,-0.485l4.456,-5.265c-3.589,0 -7.177,0 -10.766,0Z" style="fill:#fff;fill-rule:nonzero;"/></svg>