<?xml version="1.0" encoding="UTF-8" standalone="no"?>
<!DOCTYPE svg PUBLIC "-//W3C//DTD SVG 1.1//EN" "http://www.w3.org/Graphics/SVG/1.1/DTD/svg11.dtd">
<svg width="100%" height="100%" viewBox="0 0 22 32" version="1.1" xmlns="http://www.w3.org/2000/svg" xmlns:xlink="http://www.w3.org/1999/xlink" xml:space="preserve" xmlns:serif="http://www.serif.com/" style="fill-rule:evenodd;clip-rule:evenodd;stroke-linejoin:round;stroke-miterlimit:1.41421;">
    <g transform="matrix(1,0,0,1,-11938.4,-1818)">
        <g transform="matrix(0.699507,0,0,1.6,11531,1690)">
            <g transform="matrix(1.9061,0,0,0.833333,574.873,80)">
                <path d="M20,12.279L13.22,13.417L17.476,22.093L13.574,24L9.293,15.242L4,19.823L4,0C9.333,4.093 14.667,8.186 20,12.279ZM5.125,17.361L9.662,13.435L14.091,22.495L15.97,21.577L11.545,12.557L17.264,11.597L5.125,2.282C5.125,7.308 5.125,12.335 5.125,17.361Z" style="fill:white;fill-rule:nonzero;"/>
            </g>
        </g>
    </g>
</svg>
