<?xml version="1.0" encoding="UTF-8" standalone="no"?><!DOCTYPE svg PUBLIC "-//W3C//DTD SVG 1.1//EN" "http://www.w3.org/Graphics/SVG/1.1/DTD/svg11.dtd"><svg width="100%" height="100%" viewBox='0 0 24 24' version="1.1" xmlns="http://www.w3.org/2000/svg" xmlns:xlink="http://www.w3.org/1999/xlink" xml:space="preserve" xmlns:serif="http://www.serif.com/" style="fill-rule:evenodd;clip-rule:evenodd;stroke-linejoin:round;stroke-miterlimit:1.41421;"><rect id="icon-edit-color" x="0" y="0" width="24" height="24" style="fill:none;"/><path d="M24,0l0,24l-24,0l0,-24l24,0Zm-19.237,19.562c-0.092,0.037 -0.198,0.015 -0.269,-0.056c-0.071,-0.071 -0.093,-0.177 -0.056,-0.269c0.496,-1.239 1.669,-4.173 1.669,-4.173l2.829,2.829c0,0 -2.934,1.173 -4.173,1.669Zm15.496,-12.993c0.515,-0.515 0.515,-1.351 0,-1.866l-0.962,-0.962c-0.515,-0.515 -1.351,-0.515 -1.866,0l-10.381,10.38l2.829,2.829l10.38,-10.381Z" style="fill:#fff;"/></svg>