<?xml version="1.0" encoding="UTF-8" standalone="no"?>
<!DOCTYPE svg PUBLIC "-//W3C//DTD SVG 1.1//EN" "http://www.w3.org/Graphics/SVG/1.1/DTD/svg11.dtd">
<svg width="100%" height="100%" viewBox="0 0 36 24" version="1.1" xmlns="http://www.w3.org/2000/svg" xmlns:xlink="http://www.w3.org/1999/xlink" xml:space="preserve" xmlns:serif="http://www.serif.com/" style="fill-rule:evenodd;clip-rule:evenodd;stroke-linejoin:round;stroke-miterlimit:1.41421;">
    <g transform="matrix(1,0,0,1,-12253.9,-1822)">
        <g transform="matrix(0.793103,0,0,1.6,11804.1,1690)">
            <g transform="matrix(1.26087,0,0,0.625,-12683.3,-48.75)">
                <path d="M10527,233.996C10519.4,233.996 10512.6,227.681 10509,221.364C10512.6,215.212 10519.4,210.004 10527,210.004C10534.7,210.004 10541.5,215.182 10545,221.346C10541.6,227.989 10534.9,233.996 10527,233.996ZM10510.8,221.376C10512,223.372 10518.3,232.496 10527,232.496C10536.5,232.496 10542.2,223.345 10543.3,221.393C10542.1,219.596 10536.4,211.504 10527,211.504C10517.8,211.504 10512,219.533 10510.8,221.376ZM10527.5,228L10526.5,228L10526.5,227.002C10525.5,226.984 10524.4,226.738 10523.5,226.276L10524,224.632C10524.9,225.004 10526.2,225.398 10527.2,225.172C10528.3,224.912 10528.6,223.73 10527.3,223.162C10526.4,222.728 10523.5,222.358 10523.5,219.918C10523.5,218.556 10524.6,217.334 10526.5,217.068L10526.5,216L10527.5,216L10527.5,217.018C10528.2,217.038 10529,217.164 10529.9,217.438L10529.6,219.086C10528.8,218.816 10528,218.572 10527.1,218.622C10525.6,218.708 10525.5,219.998 10526.6,220.538C10528.3,221.342 10530.5,221.938 10530.5,224.084C10530.5,225.8 10529.2,226.714 10527.5,226.948L10527.5,228Z" style="fill:white;"/>
            </g>
        </g>
    </g>
</svg>
