<?xml version="1.0" encoding="UTF-8" standalone="no"?><!DOCTYPE svg PUBLIC "-//W3C//DTD SVG 1.1//EN" "http://www.w3.org/Graphics/SVG/1.1/DTD/svg11.dtd"><svg width="100%" height="100%" viewBox='0 0 24 24' version="1.1" xmlns="http://www.w3.org/2000/svg" xmlns:xlink="http://www.w3.org/1999/xlink" xml:space="preserve" xmlns:serif="http://www.serif.com/" style="fill-rule:evenodd;clip-rule:evenodd;stroke-linejoin:round;stroke-miterlimit:1.41421;"><rect id="icon-info-color" x="0" y="0" width="24" height="24" style="fill:none;"/><path d="M24,0l0,24l-24,0l0,-24l24,0Zm-12,3.75c4.553,0 8.25,3.697 8.25,8.25c0,4.553 -3.697,8.25 -8.25,8.25c-4.553,0 -8.25,-3.697 -8.25,-8.25c0,-4.553 3.697,-8.25 8.25,-8.25Zm0,1.5c3.725,0 6.75,3.025 6.75,6.75c0,3.725 -3.025,6.75 -6.75,6.75c-3.725,0 -6.75,-3.025 -6.75,-6.75c0,-3.725 3.025,-6.75 6.75,-6.75Zm0.89,4.912l0,4.588c0,0.134 0.01,0.24 0.031,0.319c0.021,0.08 0.059,0.145 0.113,0.195c0.054,0.05 0.134,0.085 0.238,0.106c0.105,0.021 0.241,0.036 0.408,0.044l0,0.476c-0.803,-0.025 -1.325,-0.037 -1.567,-0.037c-0.644,0 -1.241,0.012 -1.793,0.037l0,-0.476c0.167,-0.008 0.303,-0.023 0.408,-0.044c0.104,-0.021 0.184,-0.056 0.238,-0.106c0.054,-0.05 0.092,-0.117 0.113,-0.201c0.021,-0.083 0.031,-0.188 0.031,-0.313l0,-2.958c0,-0.151 -0.01,-0.274 -0.031,-0.37c-0.021,-0.096 -0.061,-0.172 -0.119,-0.226c-0.059,-0.054 -0.14,-0.092 -0.245,-0.113c-0.104,-0.021 -0.236,-0.035 -0.395,-0.044l0,-0.438c1.07,-0.109 1.864,-0.255 2.382,-0.439l0.188,0Zm-1.918,-2.231c0,0.267 0.092,0.493 0.276,0.677c0.184,0.183 0.409,0.275 0.677,0.275c0.267,0 0.493,-0.092 0.677,-0.275c0.184,-0.184 0.275,-0.41 0.275,-0.677c0,-0.268 -0.091,-0.493 -0.275,-0.677c-0.184,-0.184 -0.41,-0.276 -0.677,-0.276c-0.268,0 -0.493,0.092 -0.677,0.276c-0.184,0.184 -0.276,0.409 -0.276,0.677Z" style="fill:#fff;"/></svg>