<?xml version="1.0" encoding="UTF-8" standalone="no"?><!DOCTYPE svg PUBLIC "-//W3C//DTD SVG 1.1//EN" "http://www.w3.org/Graphics/SVG/1.1/DTD/svg11.dtd"><svg width="100%" height="100%" viewBox='0 0 24 24' version="1.1" xmlns="http://www.w3.org/2000/svg" xmlns:xlink="http://www.w3.org/1999/xlink" xml:space="preserve" xmlns:serif="http://www.serif.com/" style="fill-rule:evenodd;clip-rule:evenodd;stroke-linejoin:round;stroke-miterlimit:1.41421;"><rect id="icon-settings" x="0" y="0" width="24" height="24" style="fill:none;"/><path d="M14.329,3.307c-1.526,-0.409 -3.132,-0.409 -4.658,0l-0.254,2.457c-0.545,0.226 -1.058,0.522 -1.526,0.881l-2.255,-1.009c-1.117,1.117 -1.92,2.509 -2.329,4.035l2.001,1.448c-0.077,0.585 -0.077,1.177 0,1.762l-2.001,1.448c0.409,1.526 1.212,2.918 2.329,4.035l2.255,-1.009c0.468,0.359 0.981,0.655 1.526,0.881l0.254,2.457c1.526,0.409 3.132,0.409 4.658,0l0.254,-2.457c0.545,-0.226 1.058,-0.522 1.526,-0.881l2.255,1.009c1.117,-1.117 1.92,-2.509 2.329,-4.035l-2.001,-1.448c0.077,-0.585 0.077,-1.177 0,-1.762l2.001,-1.448c-0.409,-1.526 -1.212,-2.918 -2.329,-4.035l-2.255,1.009c-0.468,-0.359 -0.981,-0.655 -1.526,-0.881l-0.254,-2.457Zm-2.329,5.723c1.639,0 2.97,1.331 2.97,2.97c0,1.639 -1.331,2.97 -2.97,2.97c-1.639,0 -2.97,-1.331 -2.97,-2.97c0,-1.639 1.331,-2.97 2.97,-2.97Z"/></svg>