<?xml version="1.0" encoding="UTF-8" standalone="no"?><!DOCTYPE svg PUBLIC "-//W3C//DTD SVG 1.1//EN" "http://www.w3.org/Graphics/SVG/1.1/DTD/svg11.dtd"><svg width="100%" height="100%" viewBox="0 0 16 16" version="1.1" xmlns="http://www.w3.org/2000/svg" xmlns:xlink="http://www.w3.org/1999/xlink" xml:space="preserve" xmlns:serif="http://www.serif.com/" style="fill-rule:evenodd;clip-rule:evenodd;stroke-linejoin:round;stroke-miterlimit:1.41421;"><path d="M8,0c-4.418,0 -8,3.582 -8,8c0,4.418 3.582,8 8,8c4.418,0 8,-3.582 8,-8c0,-4.418 -3.582,-8 -8,-8Zm5.335,5.771c-0.85,-2.214 -2.973,-3.07 -3.689,-3.024c2.353,0.917 2.915,4.039 2.707,4.96c-0.205,-1.08 -0.858,-2.011 -1.248,-2.256c2.278,5.336 -3.224,6.976 -4.902,5.124c0.432,0.112 1.287,0.057 1.927,-0.371c0.599,-0.401 0.655,-0.425 1.04,-0.455c0.457,-0.036 -0.027,-0.938 -1.026,-0.785c-0.411,0.063 -1.088,0.546 -1.92,0.227c-1.005,-0.384 -0.973,-1.756 0.064,-1.343c0.225,-0.291 0.059,-0.842 0.059,-0.842c0.301,-0.276 0.681,-0.471 0.913,-0.607c0.152,-0.09 0.553,-0.338 0.53,-0.82c-0.082,-0.064 -0.213,-0.146 -0.511,-0.129c-1.157,0.073 -1.234,-0.345 -1.311,-0.539c0.052,-0.445 0.349,-1.022 0.907,-1.287c-0.838,-0.129 -1.52,0.265 -1.859,0.769c-0.539,-0.116 -0.87,-0.122 -1.412,-0.02c-0.211,-0.16 -0.444,-0.447 -0.585,-0.788c1.221,-1.377 2.999,-2.252 4.981,-2.252c3.941,0 5.509,2.856 5.335,4.438Z" style="fill:#fff;fill-rule:nonzero;"/></svg>