<?xml version="1.0" encoding="UTF-8" standalone="no"?>
<!DOCTYPE svg PUBLIC "-//W3C//DTD SVG 1.1//EN" "http://www.w3.org/Graphics/SVG/1.1/DTD/svg11.dtd">
<svg width="100%" height="100%" viewBox="0 0 16 16" version="1.1" xmlns="http://www.w3.org/2000/svg" xmlns:xlink="http://www.w3.org/1999/xlink" xml:space="preserve" xmlns:serif="http://www.serif.com/" style="fill-rule:evenodd;clip-rule:evenodd;stroke-linejoin:round;stroke-miterlimit:1.41421;">
    <g transform="matrix(1,0,0,1,-21486.7,-1696.39)">
        <g transform="matrix(1,0,0,1.1643,17792.9,-127.824)">
            <g transform="matrix(0.666667,0,0,0.572588,3693.82,1566.45)">
                <path d="M12,5.173L14.335,9.99L19.64,10.722L15.779,14.432L16.721,19.702L12,17.178L7.279,19.703L8.221,14.433L4.36,10.723L9.665,9.99L12,5.173ZM12,0.587L8.332,8.155L0,9.306L6.064,15.134L4.584,23.413L12,19.446L19.416,23.412L17.936,15.133L24,9.306L15.668,8.156L12,0.587Z" style="fill-rule:nonzero;"/>
            </g>
        </g>
    </g>
</svg>
