<?xml version="1.0" encoding="UTF-8" standalone="no"?><!DOCTYPE svg PUBLIC "-//W3C//DTD SVG 1.1//EN" "http://www.w3.org/Graphics/SVG/1.1/DTD/svg11.dtd"><svg width="100%" height="100%" viewBox='0 0 24 24' version="1.1" xmlns="http://www.w3.org/2000/svg" xmlns:xlink="http://www.w3.org/1999/xlink" xml:space="preserve" xmlns:serif="http://www.serif.com/" style="fill-rule:evenodd;clip-rule:evenodd;stroke-linejoin:round;stroke-miterlimit:1.41421;"><rect id="icon-clear-color" x="0" y="0" width="24" height="24" style="fill:none;"/><path d="M24,0l0,24l-24,0l0,-24l24,0Zm-12,10.586c0,0 3.971,-3.971 5.639,-5.639c0.192,-0.193 0.453,-0.301 0.725,-0.301c0.272,0 0.533,0.108 0.725,0.301c0,0 0,0 0,0c0.183,0.183 0.286,0.431 0.286,0.689c0,0.258 -0.103,0.506 -0.286,0.689c-1.646,1.646 -5.675,5.675 -5.675,5.675c0,0 4.029,4.029 5.675,5.675c0.183,0.183 0.286,0.431 0.286,0.689c0,0.258 -0.103,0.506 -0.286,0.689c0,0 0,0 0,0c-0.192,0.193 -0.453,0.301 -0.725,0.301c-0.272,0 -0.533,-0.108 -0.725,-0.301c-1.668,-1.668 -5.639,-5.639 -5.639,-5.639c0,0 -3.971,3.971 -5.639,5.639c-0.192,0.193 -0.453,0.301 -0.725,0.301c-0.272,0 -0.533,-0.108 -0.725,-0.301c0,0 0,0 0,0c-0.183,-0.183 -0.286,-0.431 -0.286,-0.689c0,-0.258 0.103,-0.506 0.286,-0.689c1.646,-1.646 5.675,-5.675 5.675,-5.675c0,0 -4.029,-4.029 -5.675,-5.675c-0.183,-0.183 -0.286,-0.431 -0.286,-0.689c0,-0.258 0.103,-0.506 0.286,-0.689c0,0 0,0 0,0c0.192,-0.193 0.453,-0.301 0.725,-0.301c0.272,0 0.533,0.108 0.725,0.301c1.668,1.668 5.639,5.639 5.639,5.639Z" style="fill:#fff;"/></svg>