<?xml version="1.0" encoding="UTF-8" standalone="no"?>
<!DOCTYPE svg PUBLIC "-//W3C//DTD SVG 1.1//EN" "http://www.w3.org/Graphics/SVG/1.1/DTD/svg11.dtd">
<svg width="100%" height="100%" viewBox="0 0 16 17" version="1.1" xmlns="http://www.w3.org/2000/svg" xmlns:xlink="http://www.w3.org/1999/xlink" xml:space="preserve" xmlns:serif="http://www.serif.com/" style="fill-rule:evenodd;clip-rule:evenodd;stroke-linejoin:round;stroke-miterlimit:1.41421;">
    <g transform="matrix(1,0,0,1,-21250.7,-2284)">
        <g transform="matrix(1,0,0,1.1643,17516.9,460.176)">
            <g transform="matrix(0.666694,0,0,0.572612,3733.81,1566.45)">
                <path d="M18.363,8.464L19.796,9.895L7.126,22.564L0.001,24L1.44,16.873L14.105,4.205L15.536,5.636L3.281,17.86L2.555,21.444L6.139,20.721L18.363,8.464ZM18.307,0L15.492,2.817L21.183,8.509L24,5.688L18.307,0ZM5.989,18.718L17.302,7.402L16.597,6.695L5.284,18.009L5.989,18.718Z" style="fill-rule:nonzero;"/>
            </g>
        </g>
    </g>
</svg>
