<?xml version="1.0" encoding="UTF-8" standalone="no"?>
<!DOCTYPE svg PUBLIC "-//W3C//DTD SVG 1.1//EN" "http://www.w3.org/Graphics/SVG/1.1/DTD/svg11.dtd">
<svg width="100%" height="100%" viewBox="0 0 16 15" version="1.1" xmlns="http://www.w3.org/2000/svg" xmlns:xlink="http://www.w3.org/1999/xlink" xml:space="preserve" xmlns:serif="http://www.serif.com/" style="fill-rule:evenodd;clip-rule:evenodd;stroke-linejoin:round;stroke-miterlimit:1.41421;">
    <g transform="matrix(1,0,0,1,-11628,-1898.67)">
        <g transform="matrix(1,0,0,1.6,11200,1600)">
            <g transform="matrix(0.666667,0,0,0.416667,428,186.25)">
                <path d="M20,19L16,19L16,15L20,15L20,19ZM14,9L10,9L10,13L14,13L14,9ZM20,9L16,9L16,13L20,13L20,9ZM8,15L4,15L4,19L8,19L8,15ZM24,1L24,23L0,23L0,1L24,1ZM22,7L2,7L2,21L22,21L22,7ZM14,15L10,15L10,19L14,19L14,15ZM8,9L4,9L4,13L8,13L8,9Z" style="fill:rgb(123,121,117);fill-rule:nonzero;"/>
            </g>
        </g>
    </g>
</svg>
