<?xml version="1.0" encoding="UTF-8" standalone="no"?><!DOCTYPE svg PUBLIC "-//W3C//DTD SVG 1.1//EN" "http://www.w3.org/Graphics/SVG/1.1/DTD/svg11.dtd"><svg width="100%" height="100%" viewBox='0 0 22 22' version="1.1" xmlns="http://www.w3.org/2000/svg" xmlns:xlink="http://www.w3.org/1999/xlink" xml:space="preserve" xmlns:serif="http://www.serif.com/" style="fill-rule:evenodd;clip-rule:evenodd;stroke-linejoin:round;stroke-miterlimit:1.41421;"><rect id="icon-arrow-down" x="0" y="0" width="32" height="24" style="fill:none;"/><g><path d="M16.257,9.379l0.029,0.002l0.029,0.003l0.029,0.005l0.028,0.007l0.028,0.008l0.027,0.01l0.027,0.012l0.026,0.013l0.025,0.014l0.024,0.016l0.024,0.017l0.022,0.019l0.021,0.02l0.02,0.021l0.019,0.023l0.017,0.023l0.016,0.024l0.015,0.025l0.013,0.026l0.011,0.027l0.01,0.027l0.009,0.028l0.006,0.029l0.005,0.028l0.004,0.029l0.001,0.029l0,0.029l-0.001,0.029l-0.004,0.029l-0.005,0.029l-0.006,0.028l-0.009,0.028l-0.01,0.027l-0.011,0.027l-0.013,0.026l-0.015,0.025l-0.016,0.024l-0.017,0.024l-0.019,0.022l-0.02,0.021l-4.242,4.243l-0.022,0.02l-0.022,0.019l-0.023,0.017l-0.025,0.016l-0.025,0.014l-0.026,0.013l-0.026,0.012l-0.028,0.01l-0.028,0.008l-0.028,0.007l-0.029,0.005l-0.028,0.003l-0.029,0.002l-0.03,0l-0.029,-0.002l-0.028,-0.003l-0.029,-0.005l-0.028,-0.007l-0.028,-0.008l-0.028,-0.01l-0.026,-0.012l-0.026,-0.013l-0.025,-0.014l-0.025,-0.016l-0.023,-0.017l-0.022,-0.019l-0.022,-0.02l-0.02,-0.021l-0.018,-0.023l-0.018,-0.023l-0.016,-0.024l-0.014,-0.025l-0.013,-0.026l-0.012,-0.027l-0.01,-0.027l-0.008,-0.028l-0.007,-0.029l-0.005,-0.028l-0.003,-0.029l-0.002,-0.029l0,-0.029l0.002,-0.029l0.003,-0.029l0.005,-0.029l0.007,-0.028l0.008,-0.028l0.01,-0.027l0.012,-0.027l0.013,-0.026l0.014,-0.025l0.016,-0.024l0.018,-0.024l0.018,-0.022l0.02,-0.021l4.243,-4.243l0.021,-0.02l0.023,-0.019l0.023,-0.017l0.024,-0.016l0.025,-0.014l0.026,-0.013l0.027,-0.012l0.027,-0.01l0.028,-0.008l0.029,-0.007l0.028,-0.005l0.029,-0.003l0.029,-0.002l0.029,0Z"/><path d="M7.801,9.381l0.029,0.003l0.028,0.005l0.029,0.007l0.028,0.008l0.027,0.01l0.027,0.012l0.026,0.013l0.025,0.014l0.024,0.016l0.023,0.017l0.023,0.019l0.021,0.02l4.243,4.243l0.02,0.021l0.018,0.022l0.018,0.024l0.016,0.024l0.014,0.025l0.013,0.026l0.012,0.027l0.01,0.027l0.008,0.028l0.007,0.028l0.005,0.029l0.003,0.029l0.002,0.029l0,0.029l-0.002,0.029l-0.003,0.029l-0.005,0.028l-0.007,0.029l-0.008,0.028l-0.01,0.027l-0.012,0.027l-0.013,0.026l-0.014,0.025l-0.016,0.024l-0.018,0.023l-0.018,0.023l-0.02,0.021l-0.022,0.02l-0.022,0.019l-0.023,0.017l-0.025,0.016l-0.025,0.014l-0.026,0.013l-0.026,0.012l-0.028,0.01l-0.028,0.008l-0.028,0.007l-0.029,0.005l-0.028,0.003l-0.029,0.002l-0.03,0l-0.029,-0.002l-0.028,-0.003l-0.029,-0.005l-0.028,-0.007l-0.028,-0.008l-0.028,-0.01l-0.026,-0.012l-0.026,-0.013l-0.025,-0.014l-0.025,-0.016l-0.023,-0.017l-0.022,-0.019l-0.022,-0.02l-4.242,-4.243l-0.02,-0.021l-0.019,-0.022l-0.017,-0.024l-0.016,-0.024l-0.015,-0.025l-0.013,-0.026l-0.011,-0.027l-0.01,-0.027l-0.009,-0.028l-0.006,-0.028l-0.005,-0.029l-0.004,-0.029l-0.001,-0.029l0,-0.029l0.001,-0.029l0.004,-0.029l0.005,-0.028l0.006,-0.029l0.009,-0.028l0.01,-0.027l0.011,-0.027l0.013,-0.026l0.015,-0.025l0.016,-0.024l0.017,-0.023l0.019,-0.023l0.02,-0.021l0.021,-0.02l0.022,-0.019l0.024,-0.017l0.024,-0.016l0.025,-0.014l0.026,-0.013l0.027,-0.012l0.027,-0.01l0.028,-0.008l0.028,-0.007l0.029,-0.005l0.029,-0.003l0.029,-0.002l0.029,0l0.029,0.002Z"/></g></svg>