<?xml version="1.0" encoding="UTF-8" standalone="no"?><!DOCTYPE svg PUBLIC "-//W3C//DTD SVG 1.1//EN" "http://www.w3.org/Graphics/SVG/1.1/DTD/svg11.dtd"><svg width="100%" height="100%" viewBox='0 0 24 24' viewBox='0 0 100% 100%' version="1.1" xmlns="http://www.w3.org/2000/svg" xmlns:xlink="http://www.w3.org/1999/xlink" xml:space="preserve" xmlns:serif="http://www.serif.com/" style="fill-rule:evenodd;clip-rule:evenodd;stroke-linejoin:round;stroke-miterlimit:1.41421;"><rect id="icon-reset-invert" x="0" y="0" width="24" height="24" style="fill:none;"/><path d="M6.22,6.113c1.535,-1.507 3.608,-2.363 5.78,-2.363c4.553,0 8.25,3.697 8.25,8.25c0,4.553 -3.697,8.25 -8.25,8.25c-2.439,0 -4.752,-1.079 -6.32,-2.947l1.149,-0.964c1.262,1.504 3.144,2.411 5.171,2.411c3.725,0 6.75,-3.025 6.75,-6.75c0,-3.725 -3.025,-6.75 -6.75,-6.75c-1.777,0 -3.441,0.697 -4.675,1.881l1.092,1.006l-4.704,1.785l1.394,-4.834l1.113,1.025Z" style="fill:#fff;"/></svg>