<?xml version="1.0" encoding="UTF-8" standalone="no"?><!DOCTYPE svg PUBLIC "-//W3C//DTD SVG 1.1//EN" "http://www.w3.org/Graphics/SVG/1.1/DTD/svg11.dtd"><svg width="100%" height="100%" viewBox='0 0 24 24' version="1.1" xmlns="http://www.w3.org/2000/svg" xmlns:xlink="http://www.w3.org/1999/xlink" xml:space="preserve" xmlns:serif="http://www.serif.com/" style="fill-rule:evenodd;clip-rule:evenodd;stroke-linejoin:round;stroke-miterlimit:1.41421;"><rect id="icon-warning-full" x="0" y="0" width="24" height="24" style="fill:none;"/><clipPath id="_clip1"><rect x="0" y="0" width="24" height="24"/></clipPath><g clip-path="url(#_clip1)"><g><path d="M10.66,2.085c0.275,-0.481 0.786,-0.778 1.34,-0.778c0.554,0 1.065,0.297 1.34,0.778c2.523,4.415 7.95,13.912 10.457,18.299c0.273,0.478 0.271,1.065 -0.005,1.54c-0.277,0.476 -0.785,0.769 -1.335,0.769c-5.03,0 -15.884,0 -20.914,0c-0.55,0 -1.058,-0.293 -1.335,-0.769c-0.276,-0.475 -0.278,-1.062 -0.005,-1.54c2.507,-4.387 7.934,-13.884 10.457,-18.299Z" style="fill:#ec9213;"/><path d="M11.007,9.798c-0.075,-0.61 0.399,-1.153 1.019,-1.153c0.582,0 1.04,0.511 0.967,1.096l-0.572,4.575c-0.026,0.214 -0.209,0.375 -0.424,0.375c-0.215,0 -0.398,-0.161 -0.425,-0.375l-0.565,-4.518Zm0.99,8.105c-0.521,0 -0.945,-0.423 -0.945,-0.945c0,-0.521 0.424,-0.944 0.945,-0.944c0.521,0 0.945,0.423 0.945,0.944c0,0.522 -0.424,0.945 -0.945,0.945Z" style="fill:#fff;fill-rule:nonzero;"/></g></g></svg>