<?xml version="1.0" encoding="UTF-8" standalone="no"?>
<!DOCTYPE svg PUBLIC "-//W3C//DTD SVG 1.1//EN" "http://www.w3.org/Graphics/SVG/1.1/DTD/svg11.dtd">
<svg width="100%" height="100%" viewBox="0 0 27 21" version="1.1" xmlns="http://www.w3.org/2000/svg" xmlns:xlink="http://www.w3.org/1999/xlink" xml:space="preserve" xmlns:serif="http://www.serif.com/" style="fill-rule:evenodd;clip-rule:evenodd;stroke-linejoin:round;stroke-miterlimit:2;">
    <g transform="matrix(1,0,0,1,-16,-94)">
        <g transform="matrix(1.15764,0,0,1.6,-639.015,-30)">
            <g transform="matrix(-0.86383,0,0,0.625,10578.4,-173.534)">
                <path d="M11589.9,407.646L11588.7,407.646L11588.7,403.888L11565.2,403.888L11565.2,421.404L11588.7,421.404L11588.7,417.646L11589.9,417.646L11589.9,422.646L11563.9,422.646L11563.9,402.646L11589.9,402.646L11589.9,407.646ZM11572.4,412.006L11578.4,407.018L11577.6,406.166L11569.9,412.59L11577.6,419.126L11578.4,418.194L11572.4,413.206L11589.9,413.206L11589.9,412.006L11572.4,412.006Z" style="fill:white;"/>
            </g>
        </g>
    </g>
</svg>
