<?xml version="1.0" encoding="UTF-8" standalone="no"?><!DOCTYPE svg PUBLIC "-//W3C//DTD SVG 1.1//EN" "http://www.w3.org/Graphics/SVG/1.1/DTD/svg11.dtd"><svg width="100%" height="100%" viewBox='0 0 24 24' version="1.1" xmlns="http://www.w3.org/2000/svg" xmlns:xlink="http://www.w3.org/1999/xlink" xml:space="preserve" xmlns:serif="http://www.serif.com/" style="fill-rule:evenodd;clip-rule:evenodd;stroke-linejoin:round;stroke-miterlimit:1.41421;"><rect id="icon-clock" x="0" y="0" width="24" height="24" style="fill:none;"/><path d="M12,3.75c4.553,0 8.25,3.697 8.25,8.25c0,4.553 -3.697,8.25 -8.25,8.25c-4.553,0 -8.25,-3.697 -8.25,-8.25c0,-4.553 3.697,-8.25 8.25,-8.25Zm0,1.5c3.725,0 6.75,3.025 6.75,6.75c0,3.725 -3.025,6.75 -6.75,6.75c-3.725,0 -6.75,-3.025 -6.75,-6.75c0,-3.725 3.025,-6.75 6.75,-6.75Zm-0.639,7.134c-0.059,-0.092 -0.099,-0.206 -0.11,-0.344c-0.049,-1.859 -0.049,-3.721 0,-5.58c0.033,-0.414 0.3,-0.735 0.809,-0.708c0.367,0.04 0.659,0.34 0.689,0.708c0.046,1.742 0.049,3.487 0.009,5.229c0.889,0.861 1.763,1.738 2.621,2.63c0.497,0.559 -0.347,1.694 -1.06,1.06c-0.975,-0.938 -1.932,-1.895 -2.869,-2.87c-0.035,-0.039 -0.065,-0.081 -0.089,-0.125Z"/></svg>