<?xml version="1.0" encoding="UTF-8" standalone="no"?><!DOCTYPE svg PUBLIC "-//W3C//DTD SVG 1.1//EN" "http://www.w3.org/Graphics/SVG/1.1/DTD/svg11.dtd"><svg width="100%" height="100%" viewBox='0 0 24 24' version="1.1" xmlns="http://www.w3.org/2000/svg" xmlns:xlink="http://www.w3.org/1999/xlink" xml:space="preserve" xmlns:serif="http://www.serif.com/" style="fill-rule:evenodd;clip-rule:evenodd;stroke-linejoin:round;stroke-miterlimit:1.41421;"><rect id="icon-showall" x="0" y="0" width="24" height="24" style="fill:none;"/><rect x="4" y="4" width="12" height="12" style="fill:#fff;"/><path d="M16.75,16.75l-13.5,0l0,-13.5l13.5,0c0,4.5 0,9 0,13.5Zm-12,-12l0,10.5l10.5,0l0,-10.5c-3.5,0 -7,0 -10.5,0Z" style="fill-rule:nonzero;"/><rect x="8" y="8" width="12" height="12" style="fill:#fff;"/><path d="M20.75,20.75l-13.5,0l0,-13.5l13.5,0c0,4.5 0,9 0,13.5Zm-12,-12l0,10.5l10.5,0l0,-10.5c-3.5,0 -7,0 -10.5,0Z" style="fill-rule:nonzero;"/></svg>