<?xml version="1.0" encoding="UTF-8" standalone="no"?>
<!DOCTYPE svg PUBLIC "-//W3C//DTD SVG 1.1//EN" "http://www.w3.org/Graphics/SVG/1.1/DTD/svg11.dtd">
<svg width="100%" height="100%" viewBox="0 0 36 30" version="1.1" xmlns="http://www.w3.org/2000/svg" xmlns:xlink="http://www.w3.org/1999/xlink" xml:space="preserve" xmlns:serif="http://www.serif.com/" style="fill-rule:evenodd;clip-rule:evenodd;stroke-linejoin:round;stroke-miterlimit:1.41421;">
    <g transform="matrix(1,0,0,1,-12083.2,-1819)">
        <g transform="matrix(0.780788,0,0,1.6,11640.2,1690)">
            <g transform="matrix(1.28076,0,0,0.625,-12560.4,-48.75)">
                <path d="M10267.8,225L10266.3,225L10266.3,237L10267.8,237L10267.8,225ZM10282.9,221.25L10275.4,215.014L10276.4,213.95L10286,221.979L10276.4,230.15L10275.4,228.985L10282.9,222.75L10250,222.75L10250,221.25L10282.9,221.25ZM10267.8,207L10266.3,207L10266.3,219L10267.8,219L10267.8,207Z" style="fill:white;"/>
            </g>
        </g>
    </g>
</svg>
