<?xml version="1.0" encoding="UTF-8" standalone="no"?>
<!DOCTYPE svg PUBLIC "-//W3C//DTD SVG 1.1//EN" "http://www.w3.org/Graphics/SVG/1.1/DTD/svg11.dtd">
<svg width="100%" height="100%" viewBox="0 0 32 29" version="1.1" xmlns="http://www.w3.org/2000/svg" xmlns:xlink="http://www.w3.org/1999/xlink" xml:space="preserve" xmlns:serif="http://www.serif.com/" style="fill-rule:evenodd;clip-rule:evenodd;stroke-linejoin:round;stroke-miterlimit:1.41421;">
    <g transform="matrix(1,0,0,1,-14420,-1981.57)">
        <g transform="matrix(1,0,0,1,14400,1778.94)">
            <g transform="matrix(1,0,0,1,-263.243,143.017)">
                <g transform="matrix(1.23622,0,0,1.08169,-70.6875,-7.22792)">
                    <path d="M299.29,61.789L299.337,61.79L299.384,61.793L299.431,61.796L299.478,61.8L299.524,61.805L299.57,61.81L299.616,61.817L299.662,61.825L299.708,61.833L299.754,61.842L299.799,61.852L299.844,61.863L299.889,61.875L299.934,61.887L299.979,61.901L300.023,61.915L300.067,61.93L300.111,61.946L300.154,61.962L300.197,61.98L300.24,61.998L300.283,62.017L300.325,62.037L300.367,62.057L300.409,62.078L300.45,62.1L300.491,62.123L300.532,62.147L300.572,62.171L300.612,62.196L300.652,62.222L300.691,62.249L300.73,62.276L300.769,62.304L300.807,62.333L300.845,62.362L300.882,62.392L300.919,62.423L300.955,62.454L300.991,62.487L301.027,62.52L301.062,62.553L301.097,62.587L301.131,62.622L301.165,62.658L301.198,62.694L301.23,62.731L301.263,62.768L301.294,62.807L301.326,62.845L301.356,62.885L301.386,62.925L301.416,62.966L301.445,63.007L301.474,63.049L301.502,63.091L301.529,63.134L301.556,63.178L301.582,63.222L301.607,63.267L301.632,63.313L301.657,63.359L301.681,63.405L311.816,83.676L311.839,83.722L311.861,83.77L311.882,83.817L311.903,83.865L311.923,83.912L311.942,83.961L311.961,84.009L311.979,84.058L311.996,84.107L312.012,84.156L312.027,84.206L312.042,84.255L312.056,84.305L312.07,84.355L312.082,84.406L312.094,84.456L312.106,84.507L312.116,84.557L312.126,84.608L312.135,84.659L312.143,84.71L312.151,84.762L312.157,84.813L312.163,84.865L312.169,84.916L312.173,84.968L312.177,85.019L312.18,85.071L312.183,85.123L312.185,85.175L312.185,85.227L312.186,85.278L312.185,85.33L312.184,85.382L312.182,85.434L312.179,85.486L312.176,85.537L312.172,85.589L312.167,85.64L312.161,85.692L312.155,85.743L312.148,85.795L312.14,85.846L312.131,85.897L312.122,85.948L312.112,85.999L312.101,86.049L312.09,86.1L312.077,86.15L312.064,86.201L312.051,86.251L312.036,86.3L312.021,86.35L312.005,86.399L311.989,86.448L311.971,86.497L311.953,86.546L311.935,86.594L311.915,86.642L311.895,86.69L311.874,86.737L311.852,86.785L311.83,86.832L311.806,86.878L311.783,86.924L311.758,86.97L311.733,87.015L311.707,87.059L311.681,87.103L311.654,87.146L311.627,87.189L311.599,87.231L311.57,87.272L311.541,87.313L311.512,87.353L311.482,87.393L311.451,87.432L311.42,87.47L311.388,87.508L311.356,87.545L311.323,87.582L311.29,87.617L311.256,87.653L311.222,87.687L311.188,87.721L311.153,87.754L311.117,87.787L311.081,87.818L311.045,87.85L311.008,87.88L310.971,87.91L310.933,87.939L310.895,87.967L310.857,87.995L310.818,88.022L310.779,88.048L310.74,88.074L310.7,88.098L310.66,88.122L310.619,88.146L310.578,88.168L310.537,88.19L310.496,88.211L310.454,88.231L310.412,88.251L310.369,88.27L310.327,88.288L310.284,88.305L310.24,88.321L310.197,88.337L310.153,88.352L310.109,88.366L310.065,88.379L310.021,88.391L309.976,88.403L309.931,88.413L309.886,88.423L309.841,88.432L309.795,88.441L309.749,88.448L309.703,88.455L309.657,88.46L309.611,88.465L309.565,88.469L309.518,88.472L309.472,88.474L309.425,88.476L309.378,88.476L289.108,88.476L289.061,88.476L289.014,88.474L288.968,88.472L288.921,88.469L288.875,88.465L288.829,88.46L288.783,88.455L288.737,88.448L288.691,88.441L288.646,88.432L288.6,88.423L288.555,88.413L288.51,88.403L288.465,88.391L288.421,88.379L288.377,88.366L288.333,88.352L288.289,88.337L288.246,88.321L288.202,88.305L288.159,88.288L288.117,88.27L288.074,88.251L288.032,88.231L287.99,88.211L287.949,88.19L287.908,88.168L287.867,88.146L287.826,88.122L287.786,88.098L287.746,88.074L287.707,88.048L287.668,88.022L287.629,87.995L287.591,87.967L287.553,87.939L287.515,87.91L287.478,87.88L287.441,87.85L287.405,87.818L287.369,87.787L287.333,87.754L287.298,87.721L287.264,87.687L287.23,87.653L287.196,87.617L287.163,87.582L287.13,87.545L287.098,87.508L287.066,87.47L287.035,87.432L287.004,87.393L286.974,87.353L286.945,87.313L286.916,87.272L286.887,87.231L286.859,87.189L286.832,87.146L286.805,87.103L286.779,87.059L286.753,87.015L286.728,86.97L286.703,86.924L286.68,86.878L286.656,86.832L286.634,86.785L286.612,86.737L286.591,86.69L286.571,86.642L286.551,86.594L286.533,86.546L286.515,86.497L286.497,86.448L286.481,86.399L286.465,86.35L286.45,86.3L286.435,86.251L286.422,86.201L286.409,86.15L286.396,86.1L286.385,86.049L286.374,85.999L286.364,85.948L286.355,85.897L286.346,85.846L286.338,85.795L286.331,85.743L286.325,85.692L286.319,85.64L286.314,85.589L286.31,85.537L286.307,85.486L286.304,85.434L286.302,85.382L286.301,85.33L286.3,85.278L286.301,85.227L286.302,85.175L286.303,85.123L286.306,85.071L286.309,85.019L286.313,84.968L286.317,84.916L286.323,84.865L286.329,84.813L286.335,84.762L286.343,84.71L286.351,84.659L286.36,84.608L286.37,84.557L286.38,84.507L286.392,84.456L286.404,84.406L286.416,84.355L286.43,84.305L286.444,84.255L286.459,84.206L286.474,84.156L286.49,84.107L286.507,84.058L286.525,84.009L286.544,83.961L286.563,83.912L286.583,83.865L286.604,83.817L286.625,83.77L286.647,83.722L286.67,83.676L296.805,63.405L296.829,63.359L296.854,63.313L296.879,63.267L296.904,63.222L296.93,63.178L296.957,63.134L296.984,63.091L297.012,63.049L297.041,63.007L297.07,62.966L297.1,62.925L297.13,62.885L297.16,62.845L297.192,62.807L297.223,62.768L297.256,62.731L297.288,62.694L297.321,62.658L297.355,62.622L297.389,62.587L297.424,62.553L297.459,62.52L297.495,62.487L297.531,62.454L297.567,62.423L297.604,62.392L297.641,62.362L297.679,62.333L297.717,62.304L297.756,62.276L297.795,62.249L297.834,62.222L297.874,62.196L297.914,62.171L297.954,62.147L297.995,62.123L298.036,62.1L298.077,62.078L298.119,62.057L298.161,62.037L298.203,62.017L298.246,61.998L298.289,61.98L298.332,61.962L298.375,61.946L298.419,61.93L298.463,61.915L298.507,61.901L298.552,61.887L298.597,61.875L298.642,61.863L298.687,61.852L298.732,61.842L298.778,61.833L298.824,61.825L298.87,61.817L298.916,61.81L298.962,61.805L299.008,61.8L299.055,61.796L299.102,61.793L299.149,61.79L299.196,61.789L299.243,61.789L299.29,61.789ZM299.217,63.176L299.19,63.176L299.163,63.178L299.135,63.18L299.11,63.182L299.084,63.185L299.056,63.188L299.03,63.192L299.006,63.196L298.978,63.201L298.95,63.206L298.926,63.211L298.905,63.217L298.877,63.224L298.85,63.231L298.824,63.24L298.797,63.248L298.78,63.254L298.752,63.264L298.726,63.274L298.704,63.283L298.678,63.294L298.652,63.305L298.624,63.318L298.602,63.329L298.581,63.34L298.556,63.353L298.535,63.365L298.516,63.376L298.491,63.391L298.462,63.409L298.442,63.422L298.424,63.435L298.396,63.454L298.379,63.466L298.361,63.48L298.334,63.501L298.306,63.523L298.288,63.538L298.271,63.553L298.253,63.57L298.235,63.586L298.21,63.61L298.184,63.636L298.166,63.654L298.158,63.662L298.133,63.69L298.116,63.709L298.101,63.727L298.075,63.758L298.059,63.777L298.043,63.798L298.027,63.819L298.013,63.839L297.997,63.861L297.973,63.896L297.959,63.918L297.944,63.941L297.929,63.965L297.915,63.989L297.901,64.013L297.887,64.04L297.873,64.065L297.859,64.093L287.724,84.364L287.709,84.393L287.696,84.421L287.682,84.451L287.677,84.464L287.665,84.494L287.653,84.523L287.642,84.553L287.631,84.583L287.621,84.612L287.61,84.643L287.606,84.656L287.597,84.686L287.584,84.734L287.58,84.748L287.577,84.76L287.566,84.809L287.558,84.841L287.552,84.872L287.546,84.903L287.543,84.916L287.539,84.947L287.534,84.979L287.53,85.011L287.526,85.042L287.523,85.074L287.519,85.106L287.519,85.118L287.517,85.15L287.515,85.182L287.515,85.214L287.514,85.246L287.514,85.31L287.514,85.323L287.517,85.386L287.522,85.45L287.528,85.514L287.536,85.578L287.538,85.59L287.549,85.653L287.562,85.715L287.565,85.727L287.586,85.808L287.593,85.838L287.597,85.851L287.616,85.912L287.621,85.925L287.649,86.001L287.66,86.03L287.666,86.044L287.679,86.074L287.691,86.102L287.704,86.13L287.718,86.159L287.732,86.187L287.745,86.213L287.751,86.225L287.765,86.249L287.787,86.286L287.801,86.31L287.815,86.333L287.837,86.367L287.852,86.391L287.859,86.401L287.874,86.421L287.897,86.453L287.913,86.474L287.93,86.495L287.954,86.525L287.97,86.544L287.986,86.562L288.002,86.58L288.019,86.598L288.043,86.624L288.06,86.641L288.079,86.659L288.097,86.676L288.122,86.699L288.146,86.721L288.156,86.73L288.184,86.752L288.201,86.766L288.221,86.781L288.254,86.806L288.272,86.819L288.284,86.828L288.337,86.862L288.356,86.874L288.383,86.89L288.402,86.901L288.423,86.913L288.448,86.926L288.475,86.94L288.498,86.951L288.523,86.962L288.548,86.974L288.564,86.98L288.593,86.992L288.619,87.001L288.645,87.011L288.672,87.02L288.689,87.025L288.716,87.033L288.748,87.042L288.77,87.048L288.793,87.054L288.82,87.06L288.844,87.064L288.871,87.069L288.897,87.073L288.923,87.077L288.947,87.08L288.975,87.083L289.003,87.085L289.029,87.087L289.054,87.088L289.08,87.089L289.112,87.089L309.374,87.089L309.406,87.089L309.432,87.088L309.457,87.087L309.483,87.085L309.511,87.083L309.539,87.08L309.563,87.077L309.589,87.073L309.615,87.069L309.642,87.064L309.666,87.06L309.693,87.054L309.716,87.048L309.738,87.042L309.77,87.033L309.797,87.025L309.814,87.02L309.841,87.011L309.868,87.001L309.893,86.992L309.922,86.98L309.938,86.974L309.963,86.962L309.988,86.951L310.011,86.94L310.038,86.926L310.063,86.913L310.084,86.901L310.103,86.89L310.13,86.874L310.149,86.862L310.175,86.845L310.202,86.828L310.215,86.819L310.232,86.806L310.265,86.781L310.285,86.766L310.302,86.752L310.33,86.73L310.34,86.721L310.364,86.699L310.389,86.676L310.407,86.659L310.426,86.641L310.443,86.624L310.467,86.598L310.484,86.58L310.5,86.562L310.516,86.544L310.532,86.525L310.556,86.495L310.573,86.474L310.589,86.453L310.612,86.421L310.627,86.401L310.634,86.391L310.649,86.367L310.671,86.333L310.685,86.31L310.699,86.286L310.721,86.249L310.735,86.225L310.741,86.213L310.755,86.187L310.768,86.159L310.782,86.13L310.795,86.102L310.808,86.074L310.82,86.044L310.826,86.03L310.837,86.001L310.854,85.955L310.865,85.925L310.87,85.912L310.879,85.881L310.889,85.851L310.893,85.838L310.9,85.808L310.913,85.759L310.921,85.727L310.924,85.715L310.93,85.684L310.937,85.653L310.942,85.621L310.948,85.59L310.95,85.578L310.954,85.546L310.958,85.514L310.961,85.482L310.964,85.45L310.966,85.419L310.969,85.386L310.97,85.355L310.972,85.323L310.972,85.31L310.972,85.246L310.972,85.214L310.971,85.182L310.969,85.15L310.968,85.118L310.967,85.106L310.963,85.074L310.96,85.042L310.956,85.011L310.952,84.979L310.947,84.947L310.943,84.916L310.94,84.903L310.934,84.872L310.928,84.841L310.92,84.809L310.909,84.76L310.906,84.748L310.902,84.734L310.889,84.686L310.88,84.656L310.876,84.643L310.865,84.612L310.855,84.583L310.844,84.553L310.833,84.523L310.821,84.494L310.809,84.464L310.804,84.451L310.79,84.421L310.777,84.393L310.762,84.364L300.627,64.093L300.613,64.065L300.599,64.04L300.585,64.013L300.571,63.989L300.557,63.965L300.542,63.941L300.527,63.918L300.513,63.896L300.489,63.861L300.473,63.839L300.459,63.819L300.443,63.798L300.427,63.777L300.411,63.758L300.385,63.727L300.37,63.709L300.353,63.69L300.328,63.662L300.32,63.654L300.302,63.636L300.276,63.61L300.251,63.586L300.233,63.57L300.215,63.553L300.198,63.538L300.18,63.523L300.152,63.501L300.125,63.48L300.107,63.466L300.09,63.454L300.062,63.435L300.044,63.422L300.024,63.409L299.995,63.391L299.97,63.376L299.951,63.365L299.93,63.353L299.905,63.34L299.884,63.329L299.862,63.318L299.834,63.305L299.808,63.294L299.782,63.283L299.76,63.274L299.734,63.264L299.706,63.254L299.689,63.248L299.662,63.24L299.636,63.231L299.609,63.224L299.581,63.217L299.56,63.211L299.536,63.206L299.508,63.201L299.48,63.196L299.456,63.192L299.43,63.188L299.402,63.185L299.377,63.182L299.351,63.18L299.323,63.178L299.296,63.176L299.269,63.176L299.243,63.175L299.217,63.176Z" style="fill:white;"/>
                </g>
                <g transform="matrix(0.706443,0,0,0.706443,90.1519,28.2762)">
                    <path d="M294.636,70.749L297.015,70.749L297.616,59.517L294.059,59.517L294.636,70.749ZM295.831,76.482C296.934,76.482 297.726,75.643 297.726,74.612C297.726,73.581 296.934,72.765 295.831,72.765C294.704,72.765 293.889,73.581 293.889,74.612C293.889,75.643 294.704,76.482 295.831,76.482Z" style="fill:white;"/>
                </g>
            </g>
        </g>
    </g>
</svg>
