<?xml version="1.0" encoding="UTF-8" standalone="no"?><!DOCTYPE svg PUBLIC "-//W3C//DTD SVG 1.1//EN" "http://www.w3.org/Graphics/SVG/1.1/DTD/svg11.dtd"><svg width="100%" height="100%" viewBox="0 0 15 16" version="1.1" xmlns="http://www.w3.org/2000/svg" xmlns:xlink="http://www.w3.org/1999/xlink" xml:space="preserve" xmlns:serif="http://www.serif.com/" style="fill-rule:evenodd;clip-rule:evenodd;stroke-linejoin:round;stroke-miterlimit:1.41421;"><path d="M0,7.102c0.47,-3.701 2.993,-7.057 7.518,-7.102c2.732,0.052 4.979,1.29 6.315,3.65c0.672,1.232 0.882,2.525 0.926,3.952l0,1.677l-10.04,0c0.046,4.141 6.092,4 8.697,2.174l0,3.371c-1.015,0.61 -2.887,1.176 -4.817,1.176c-4.798,0 -6.753,-3.607 -6.741,-6.033c-0.074,-2.98 1.481,-4.95 3.896,-6.071c-0.512,0.636 -0.901,1.336 -1.105,2.545l5.67,0c0,0 0.331,-3.388 -3.209,-3.388c-3.34,0.118 -5.748,2.06 -7.11,4.049Z" style="fill:#fff;fill-rule:nonzero;"/></svg>