<?xml version="1.0" encoding="UTF-8" standalone="no"?><!DOCTYPE svg PUBLIC "-//W3C//DTD SVG 1.1//EN" "http://www.w3.org/Graphics/SVG/1.1/DTD/svg11.dtd"><svg width="100%" height="100%" viewBox="0 0 16 16" version="1.1" xmlns="http://www.w3.org/2000/svg" xmlns:xlink="http://www.w3.org/1999/xlink" xml:space="preserve" xmlns:serif="http://www.serif.com/" style="fill-rule:evenodd;clip-rule:evenodd;stroke-linejoin:round;stroke-miterlimit:1.41421;"><path d="M1.931,2.787c1.62,-1.885 3.842,-2.787 6.048,-2.787c2.859,0 5.69,1.515 7.145,4.369c-1.815,0.001 -4.656,0 -6.195,0c-1.116,0.001 -1.837,-0.024 -2.618,0.386c-0.917,0.483 -1.61,1.378 -1.851,2.43l-2.529,-4.398Zm3.407,5.213c0,1.467 1.193,2.66 2.659,2.66c1.466,0 2.658,-1.193 2.658,-2.66c0,-1.467 -1.192,-2.661 -2.658,-2.661c-1.466,0 -2.659,1.194 -2.659,2.661Zm3.691,3.482c-1.492,0.444 -3.239,-0.049 -4.196,-1.699c-0.73,-1.261 -2.659,-4.622 -3.536,-6.15c-0.887,1.36 -1.297,2.862 -1.297,4.338c0,3.632 2.484,7.1 6.449,7.878l2.58,-4.367Zm1.438,-6.143c1.243,1.156 1.514,3.028 0.672,4.48c-0.634,1.094 -2.659,4.51 -3.64,6.165c4.792,0.295 8.501,-3.573 8.501,-7.981c0,-0.876 -0.147,-1.774 -0.46,-2.664l-5.073,0Z" style="fill:#fff;fill-rule:nonzero;"/></svg>