<?xml version="1.0" encoding="UTF-8" standalone="no"?><!DOCTYPE svg PUBLIC "-//W3C//DTD SVG 1.1//EN" "http://www.w3.org/Graphics/SVG/1.1/DTD/svg11.dtd"><svg width="100%" height="100%" viewBox='0 0 24 24' version="1.1" xmlns="http://www.w3.org/2000/svg" xmlns:xlink="http://www.w3.org/1999/xlink" xml:space="preserve" xmlns:serif="http://www.serif.com/" style="fill-rule:evenodd;clip-rule:evenodd;stroke-linejoin:round;stroke-miterlimit:1.41421;"><rect id="icon-filter-color" x="0" y="0" width="24" height="24" style="fill:none;"/><path d="M24,0l0,24l-24,0l0,-24l24,0Zm-4.935,3.831c0.573,0.075 0.869,0.764 0.508,1.231l-5.323,6.29l-0.003,5.136c-0.036,0.271 -0.102,0.34 -0.217,0.465l-3,3c-0.457,0.419 -1.252,0.104 -1.28,-0.531l0,-8.07l-5.363,-6.342c-0.312,-0.486 0.022,-1.156 0.613,-1.182c4.688,0 9.381,-0.202 14.065,0.003Zm-1.682,1.497l-4.456,5.265c-0.168,0.218 -0.17,0.315 -0.177,0.485l0,5.034l-1.5,1.5l0,-6.534c-0.011,-0.248 -0.058,-0.31 -0.137,-0.433l-4.496,-5.317l10.766,0Z" style="fill:#fff;"/></svg>