<?xml version="1.0" encoding="UTF-8" standalone="no"?>
<!DOCTYPE svg PUBLIC "-//W3C//DTD SVG 1.1//EN" "http://www.w3.org/Graphics/SVG/1.1/DTD/svg11.dtd">
<svg width="100%" height="100%" viewBox="0 0 25 24" version="1.1" xmlns="http://www.w3.org/2000/svg" xmlns:xlink="http://www.w3.org/1999/xlink" xml:space="preserve" xmlns:serif="http://www.serif.com/" style="fill-rule:evenodd;clip-rule:evenodd;stroke-linejoin:round;stroke-miterlimit:2;">
    <g transform="matrix(1,0,0,1,-276,-93)">
        <g transform="matrix(1.15764,0,0,1.6,-380.015,-30)">
            <g transform="matrix(0.0431611,0,0,0.031228,77.0841,64.8834)">
                <path d="M11363.8,804C11363.8,683.935 11363,563.868 11363.8,443.806C11363.9,440.639 11364.2,440.379 11364.4,439.577C11366.4,432.765 11372.1,427.773 11377.6,423.897C11393,413.103 11411.6,407.464 11430.1,402.612C11485.4,388.157 11543.2,384.233 11600.7,384.005C11602.3,384.001 11603.8,384 11605.4,384.001C11663.1,384.139 11720.9,387.944 11776.5,402.352C11798.6,408.068 11822.3,414.477 11837.1,429.914C11840.8,433.689 11843.8,438.538 11843.8,444L11843.8,804C11843.8,837.115 11736.3,864 11603.8,864C11471.3,864 11363.8,837.115 11363.8,804L11363.8,804ZM11811.3,643.649C11813.8,645.059 11814.6,645.226 11816.4,647.524C11820.3,652.621 11819.4,660.754 11814.1,664.783C11812.5,666.023 11810.4,666.805 11810.3,666.817C11781.2,678.733 11750.1,684.464 11718.8,688.747C11649.7,698.203 11579.2,698.701 11509.8,691.294C11472.3,687.286 11434.8,681.475 11399.8,667.808L11399.3,667.608C11396.8,666.238 11396,666.084 11394.2,663.816C11389.6,658.09 11391.6,648.053 11398.9,644.869C11404.1,642.63 11409.8,645.376 11415.1,647.221C11444.9,657.737 11476.5,662.781 11508.3,666.359C11574.1,673.775 11641,673.573 11706.4,665.534C11738.9,661.531 11771.9,656.121 11801.9,643.656L11805,642.822L11808.2,642.82C11809.3,643.096 11810.3,643.373 11811.3,643.649ZM11818.8,597.325L11818.8,446.926C11811.5,439.826 11801.2,436.371 11791.2,432.862C11759.5,421.709 11725.7,416.756 11691.9,413.308C11662.1,410.261 11631.9,408.978 11602.3,409.001C11550.6,409.124 11498.9,412.538 11449,423.746C11430.7,427.867 11412.2,432.456 11395.8,441.943C11393.3,443.372 11390.9,444.918 11388.9,446.871L11388.8,446.926L11388.8,597.325C11428.1,577.58 11509.7,564 11603.8,564C11697.9,564 11779.5,577.58 11818.8,597.325Z" style="fill:white;"/>
            </g>
        </g>
    </g>
</svg>
