<?xml version="1.0" encoding="UTF-8" standalone="no"?><!DOCTYPE svg PUBLIC "-//W3C//DTD SVG 1.1//EN" "http://www.w3.org/Graphics/SVG/1.1/DTD/svg11.dtd"><svg width="100%" height="100%" viewBox='0 0 24 24' version="1.1" xmlns="http://www.w3.org/2000/svg" xmlns:xlink="http://www.w3.org/1999/xlink" xml:space="preserve" xmlns:serif="http://www.serif.com/" style="fill-rule:evenodd;clip-rule:evenodd;stroke-linejoin:round;stroke-miterlimit:1.41421;"><rect id="icon-search-color" x="0" y="0" width="24" height="24" style="fill:none;"/><clipPath id="_clip1"><rect x="0" y="0" width="24" height="24"/></clipPath><g clip-path="url(#_clip1)"><path d="M24,0l0,24l-24,0l0,-24l24,0Zm-9.953,15.762c-1.059,0.723 -2.339,1.146 -3.716,1.146c-3.643,0 -6.6,-2.957 -6.6,-6.6c0,-3.642 2.957,-6.6 6.6,-6.6c3.642,0 6.6,2.958 6.6,6.6c0,1.376 -0.422,2.653 -1.143,3.711c0.058,0.04 0.112,0.086 0.163,0.138c0.965,0.964 2.501,2.5 3.465,3.464c0.488,0.489 0.488,1.28 0,1.768c-0.488,0.488 -1.279,0.488 -1.767,0c-0.965,-0.964 -2.501,-2.5 -3.465,-3.465c-0.051,-0.051 -0.097,-0.105 -0.137,-0.162Zm-3.716,-10.554c2.814,0 5.1,2.286 5.1,5.1c0,2.815 -2.286,5.1 -5.1,5.1c-2.815,0 -5.1,-2.285 -5.1,-5.1c0,-2.814 2.285,-5.1 5.1,-5.1Z" style="fill:#fff;"/></g></svg>