<?xml version="1.0" encoding="UTF-8" standalone="no"?><!DOCTYPE svg PUBLIC "-//W3C//DTD SVG 1.1//EN" "http://www.w3.org/Graphics/SVG/1.1/DTD/svg11.dtd"><svg width="100%" height="100%" viewBox='0 0 24 24' version="1.1" xmlns="http://www.w3.org/2000/svg" xmlns:xlink="http://www.w3.org/1999/xlink" xml:space="preserve" xmlns:serif="http://www.serif.com/" style="fill-rule:evenodd;clip-rule:evenodd;stroke-linejoin:round;stroke-miterlimit:1.41421;"><rect id="icon-plus-color" x="0" y="0" width="24" height="24" style="fill:none;"/><clipPath id="_clip1"><rect x="0" y="0" width="24" height="24"/></clipPath><g clip-path="url(#_clip1)"><path d="M24,0l0,24l-24,0l0,-24l24,0Zm-13,11c0,0 0,-4.031 0,-5.975c0,-0.272 0.108,-0.533 0.3,-0.725c0.192,-0.192 0.453,-0.3 0.725,-0.3c0,0 0.001,0 0.001,0c0.538,0 0.974,0.436 0.974,0.974c0,1.924 0,6.026 0,6.026c0,0 4.102,0 6.026,0c0.538,0 0.974,0.436 0.974,0.974c0,0 0,0.001 0,0.001c0,0.272 -0.108,0.533 -0.3,0.725c-0.192,0.192 -0.453,0.3 -0.725,0.3c-1.944,0 -5.975,0 -5.975,0c0,0 0,4.066 0,6c0,0.265 -0.105,0.52 -0.293,0.707c-0.187,0.188 -0.442,0.293 -0.707,0.293c0,0 -0.001,0 -0.001,0c-0.552,0 -0.999,-0.447 -0.999,-0.999c0,-1.934 0,-6.001 0,-6.001c0,0 -4.102,0 -6.026,0c-0.538,0 -0.974,-0.436 -0.974,-0.974c0,0 0,-0.001 0,-0.001c0,-0.272 0.108,-0.533 0.3,-0.725c0.192,-0.192 0.453,-0.3 0.725,-0.3c1.944,0 5.975,0 5.975,0Z" style="fill:#fff;"/></g></svg>