<?xml version="1.0" encoding="UTF-8" standalone="no"?><!DOCTYPE svg PUBLIC "-//W3C//DTD SVG 1.1//EN" "http://www.w3.org/Graphics/SVG/1.1/DTD/svg11.dtd"><svg width="100%" height="100%" viewBox='0 0 22 22' version="1.1" xmlns="http://www.w3.org/2000/svg" xmlns:xlink="http://www.w3.org/1999/xlink" xml:space="preserve" xmlns:serif="http://www.serif.com/" style="fill-rule:evenodd;clip-rule:evenodd;stroke-linejoin:round;stroke-miterlimit:1.41421;"><rect id="icon-calendar" x="0" y="0" width="24" height="24" style="fill:none;"/><path d="M20,20.75l-16,0c-0.411,-0.018 -0.732,-0.336 -0.75,-0.75l0,-16c0.018,-0.411 0.336,-0.732 0.75,-0.75c5.355,0 10.715,-0.231 16.065,0.003c0.385,0.05 0.668,0.347 0.685,0.747l0,16c-0.018,0.411 -0.336,0.732 -0.75,0.75Zm-0.75,-16l-14.5,0l0,14.5l14.5,0l0,-14.5Zm-9.325,6.23l0,6.201l-1.618,0l0,-4.875l-1.194,0l0,-1.326l2.812,0Zm4.486,2.813l-2.256,2.318l0.009,1.07l4.723,0l0,-1.3l-2.653,0l1.274,-1.274c0.689,-0.699 1.202,-1.398 1.202,-2.071c0,-0.981 -0.91,-1.635 -2.166,-1.635c-0.902,0 -1.769,0.353 -2.566,0.937l0.611,1.194c0.575,-0.487 1.212,-0.788 1.716,-0.788c0.451,0 0.708,0.195 0.708,0.531c0,0.266 -0.257,0.664 -0.602,1.018Zm3.589,-4.793l-12,0l0,-1l12,0l0,1Zm0,-2l-12,0l0,-1l12,0l0,1Z"/></svg>