<?xml version="1.0" encoding="UTF-8" standalone="no"?>
<!-- Generator: Adobe Illustrator 24.0.2, SVG Export Plug-In . SVG Version: 6.00 Build 0)  -->

<svg
   version="1.1"
   id="Layer_1"
   x="0px"
   y="0px"
   viewBox="0 0 1080 1080"
   style="enable-background:new 0 0 1080 1080;"
   xml:space="preserve"
   sodipodi:docname="logo-white-positive.svg"
   inkscape:version="1.3 (0e150ed6c4, 2023-07-21)"
   xmlns:inkscape="http://www.inkscape.org/namespaces/inkscape"
   xmlns:sodipodi="http://sodipodi.sourceforge.net/DTD/sodipodi-0.dtd"
   xmlns="http://www.w3.org/2000/svg"
   xmlns:svg="http://www.w3.org/2000/svg"><defs
   id="defs2" /><sodipodi:namedview
   id="namedview2"
   pagecolor="#505050"
   bordercolor="#eeeeee"
   borderopacity="1"
   inkscape:showpageshadow="0"
   inkscape:pageopacity="0"
   inkscape:pagecheckerboard="0"
   inkscape:deskcolor="#d1d1d1"
   inkscape:zoom="0.74537037"
   inkscape:cx="539.32919"
   inkscape:cy="540"
   inkscape:window-width="1920"
   inkscape:window-height="1011"
   inkscape:window-x="0"
   inkscape:window-y="0"
   inkscape:window-maximized="1"
   inkscape:current-layer="Layer_1" />&#10;<g
   id="g2"
   style="fill:#ffffff">&#10;	<circle
   cx="288.4"
   cy="414.85"
   r="88.62"
   id="circle1"
   style="fill:#ffffff" />&#10;	<path
   d="M551.18,502.45c0.15-0.02,0.29-0.05,0.43-0.08c0.08-0.01,0.16-0.03,0.24-0.04v0c42.22-6.77,74.48-43.35,74.48-87.48   c0-48.94-39.68-88.62-88.62-88.62c-44.13,0-80.71,32.26-87.48,74.48v0c-0.01,0.07-0.02,0.13-0.04,0.2   c-0.02,0.16-0.06,0.31-0.08,0.47c-17.11,104.65-70.53,158.08-175.18,175.18c-0.16,0.02-0.32,0.06-0.48,0.08   c-0.07,0.01-0.13,0.02-0.2,0.03l0,0c-42.22,6.77-74.48,43.35-74.48,87.48c0,48.94,39.68,88.62,88.62,88.62   c44.13,0,80.71-32.26,87.48-74.48l0,0c0.01-0.07,0.02-0.13,0.03-0.19c0.03-0.16,0.06-0.32,0.08-0.48   C393.1,572.98,446.53,519.56,551.18,502.45z"
   id="path1"
   style="fill:#ffffff" />&#10;	<path
   d="M800.5,502.45c0.15-0.02,0.29-0.05,0.43-0.08c0.08-0.01,0.16-0.03,0.24-0.04l0,0c42.22-6.77,74.48-43.35,74.48-87.48   c0-48.94-39.68-88.62-88.62-88.62c-44.13,0-80.71,32.26-87.48,74.48v0c-0.01,0.07-0.02,0.13-0.04,0.2   c-0.03,0.16-0.06,0.31-0.08,0.47c-17.11,104.65-70.53,158.08-175.18,175.18c-0.16,0.02-0.31,0.06-0.47,0.08   c-0.07,0.01-0.14,0.02-0.2,0.04v0c-42.22,6.77-74.48,43.35-74.48,87.48c0,48.94,39.68,88.62,88.62,88.62   c44.13,0,80.71-32.26,87.48-74.48l0,0c0.01-0.08,0.03-0.16,0.04-0.24c0.02-0.14,0.05-0.29,0.08-0.43   C642.42,572.98,695.85,519.56,800.5,502.45z"
   id="path2"
   style="fill:#ffffff" />&#10;	<circle
   cx="787.03"
   cy="664.17"
   r="88.62"
   id="circle2"
   style="fill:#ffffff" />&#10;</g>&#10;</svg>
