<?xml version="1.0" encoding="utf-8"?>
<!-- Generator: Adobe Illustrator 24.0.2, SVG Export Plug-In . SVG Version: 6.00 Build 0)  -->
<svg version="1.1" id="Layer_1" xmlns="http://www.w3.org/2000/svg" xmlns:xlink="http://www.w3.org/1999/xlink" x="0px" y="0px"
	 viewBox="0 0 1080 1080" style="enable-background:new 0 0 1080 1080;" xml:space="preserve">
<style type="text/css">
	.st0{fill:#FF9933;}
</style>
<g>
	<g>
		<g>
			<circle class="st0" cx="288.4" cy="414.85" r="88.62"/>
		</g>
		<g>
			<path class="st0" d="M551.18,502.45c0.15-0.02,0.29-0.05,0.43-0.08c0.08-0.01,0.16-0.03,0.24-0.04v0
				c42.22-6.77,74.48-43.35,74.48-87.48c0-48.94-39.68-88.62-88.62-88.62c-44.13,0-80.71,32.26-87.48,74.48v0
				c-0.01,0.07-0.02,0.13-0.04,0.2c-0.02,0.16-0.06,0.31-0.08,0.47c-17.11,104.65-70.53,158.08-175.18,175.18
				c-0.16,0.02-0.32,0.06-0.48,0.08c-0.07,0.01-0.13,0.02-0.2,0.03l0,0c-42.22,6.77-74.48,43.35-74.48,87.48
				c0,48.94,39.68,88.62,88.62,88.62c44.13,0,80.71-32.26,87.48-74.48l0,0c0.01-0.07,0.02-0.13,0.03-0.19
				c0.03-0.16,0.06-0.32,0.08-0.48C393.1,572.98,446.53,519.56,551.18,502.45z"/>
		</g>
		<g>
			<path class="st0" d="M800.5,502.45c0.15-0.02,0.29-0.05,0.43-0.08c0.08-0.01,0.16-0.03,0.24-0.04l0,0
				c42.22-6.77,74.48-43.35,74.48-87.48c0-48.94-39.68-88.62-88.62-88.62c-44.13,0-80.71,32.26-87.48,74.48v0
				c-0.01,0.07-0.02,0.13-0.04,0.2c-0.03,0.16-0.06,0.31-0.08,0.47c-17.11,104.65-70.53,158.08-175.18,175.18
				c-0.16,0.02-0.31,0.06-0.47,0.08c-0.07,0.01-0.14,0.02-0.2,0.04v0c-42.22,6.77-74.48,43.35-74.48,87.48
				c0,48.94,39.68,88.62,88.62,88.62c44.13,0,80.71-32.26,87.48-74.48l0,0c0.01-0.08,0.03-0.16,0.04-0.24
				c0.02-0.14,0.05-0.29,0.08-0.43C642.42,572.98,695.85,519.56,800.5,502.45z"/>
		</g>
		<g>
			<circle class="st0" cx="787.03" cy="664.17" r="88.62"/>
		</g>
	</g>
</g>
</svg>
