<?xml version="1.0" encoding="utf-8"?>
<!-- Generator: Adobe Illustrator 24.0.2, SVG Export Plug-In . SVG Version: 6.00 Build 0)  -->
<svg version="1.1" id="Layer_1" xmlns="http://www.w3.org/2000/svg" xmlns:xlink="http://www.w3.org/1999/xlink" x="0px" y="0px"
	 viewBox="0 0 1000 204" style="enable-background:new 0 0 1000 204;" xml:space="preserve">
<g>
	<path d="M156.31,148.95c-0.79-19.62-4.97-34.78-26.42-41.85c20.4-8.11,30.08-24.58,30.08-44.2c0-30.08-20.66-53.88-67.48-53.88
		H4.36v186.21h44.2v-68.52h36.09c16.74,0,26.68,4.71,27.46,27.2l0.78,20.92c0.26,8.63,1.57,15.17,4.45,20.4h45.51
		c-3.14-4.97-4.97-12.29-5.23-20.14L156.31,148.95z M87.53,93.5H48.56V44.33h38.18c17.78,0,27.72,8.37,27.72,24.32
		C114.46,84.87,104.53,93.5,87.53,93.5z"/>
	<path d="M244.96,133.51l15.43-7.32c34.52-15.69,53.61-32.17,53.61-65.65c0-31.65-25.11-55.71-69.05-55.71
		c-49.69,0-71.4,27.2-71.14,66.43h42.11c0-20.66,9.68-29.82,27.98-29.82c16.74,0,26.15,8.37,26.15,23.28
		c0,13.86-7.85,22.23-27.98,30.6l-14.65,6.54c-48.38,18.83-53.35,51.26-54.66,76.89l-1.05,16.48h143.84v-36.62h-94.15
		C222.73,146.07,230.05,140.58,244.96,133.51z"/>
	<path d="M459.67,96.11c15.43-7.32,24.85-20.92,24.85-39.49c0-24.32-16.48-47.6-62.51-47.6h-88.4v186.21h91.01
		c46.29,0,67.48-21.71,67.48-54.14C492.1,122.53,480.86,103.96,459.67,96.11z M377.81,44.33h41.32c13.86,0,21.45,7.85,21.45,19.35
		c0,12.29-7.58,20.4-21.45,20.4h-41.32V44.33z M422.01,159.93h-44.2v-42.37h44.2c15.43,0,24.58,6.8,24.58,21.18
		C446.6,152.34,437.71,159.93,422.01,159.93z"/>
	<path d="M572.39,133.51l15.43-7.32c34.52-15.69,53.61-32.17,53.61-65.65c0-31.65-25.11-55.71-69.05-55.71
		c-49.69,0-71.4,27.2-71.14,66.43h42.11c0-20.66,9.68-29.82,27.98-29.82c16.74,0,26.15,8.37,26.15,23.28
		c0,13.86-7.85,22.23-27.98,30.6l-14.65,6.54c-48.38,18.83-53.35,51.26-54.66,76.89l-1.05,16.48H643v-36.62h-94.15
		C550.16,146.07,557.48,140.58,572.39,133.51z"/>
	<circle cx="729.83" cy="44.07" r="39.86"/>
	<path d="M848.04,83.48c0.07-0.01,0.13-0.02,0.19-0.03c0.04-0.01,0.07-0.01,0.11-0.02v0c18.99-3.05,33.5-19.5,33.5-39.35
		c0-22.02-17.85-39.86-39.86-39.86c-19.85,0-36.31,14.51-39.35,33.5v0c0,0.03-0.01,0.06-0.02,0.09c-0.01,0.07-0.03,0.14-0.04,0.21
		c-7.7,47.08-31.73,71.11-78.8,78.8c-0.07,0.01-0.14,0.03-0.22,0.04c-0.03,0-0.06,0.01-0.09,0.02l0,0
		c-18.99,3.05-33.51,19.5-33.51,39.35c0,22.02,17.85,39.86,39.86,39.86c19.85,0,36.31-14.51,39.35-33.5l0,0
		c0-0.03,0.01-0.06,0.01-0.09c0.01-0.07,0.03-0.14,0.04-0.22C776.93,115.2,800.96,91.17,848.04,83.48z"/>
	<path d="M960.19,83.48c0.07-0.01,0.13-0.02,0.19-0.03c0.04-0.01,0.07-0.01,0.11-0.02l0,0c18.99-3.05,33.5-19.5,33.5-39.35
		c0-22.02-17.85-39.86-39.86-39.86c-19.85,0-36.31,14.51-39.35,33.5v0c0,0.03-0.01,0.06-0.02,0.09c-0.01,0.07-0.03,0.14-0.04,0.21
		c-7.7,47.08-31.73,71.11-78.8,78.8c-0.07,0.01-0.14,0.03-0.21,0.04c-0.03,0.01-0.06,0.01-0.09,0.02v0
		c-18.99,3.05-33.5,19.5-33.5,39.35c0,22.02,17.85,39.86,39.86,39.86c19.85,0,36.31-14.51,39.35-33.5l0,0
		c0.01-0.04,0.01-0.07,0.02-0.11c0.01-0.06,0.02-0.13,0.03-0.19C889.08,115.2,913.12,91.17,960.19,83.48z"/>
	<circle cx="954.14" cy="156.22" r="39.86"/>
</g>
</svg>
